<svg version="1.2" xmlns="http://www.w3.org/2000/svg" viewBox="0 0 3000 2000" width="3000" height="2000">
	<title>13237-ai</title>
	<style>
		.s0 { fill: #fcecdb } 
		.s1 { fill: #f7dfc8 } 
		.s2 { fill: #efcbab } 
		.s3 { fill: #f9ddbf } 
		.s4 { fill: #ffead7 } 
		.s5 { fill: #b5493f } 
		.s6 { fill: #e5bd9e } 
		.s7 { fill: #cc9e7f } 
		.s8 { fill: #c65447 } 
		.s9 { fill: #ffb27d } 
		.s10 { fill: #ef9e67 } 
		.s11 { fill: #ffffff } 
		.s12 { fill: #22356b } 
		.s13 { fill: #1b2e59 } 
		.s14 { fill: #e9f3fe } 
		.s15 { fill: #c7dcf2 } 
		.s16 { fill: #2b478b } 
		.s17 { fill: #233f77 } 
		.s18 { fill: #e6f1ff } 
		.s19 { fill: #35488b } 
		.s20 { fill: #a03530 } 
		.s21 { fill: #a53a35 } 
		.s22 { fill: #e8945b } 
		.s23 { fill: #993530 } 
		.s24 { fill: #842121 } 
		.s25 { fill: #a53d38 } 
		.s26 { fill: #a03732 } 
		.s27 { fill: #163560 } 
		.s28 { fill: #b23636 } 
		.s29 { fill: #892828 } 
		.s30 { fill: #ed7d2b } 
		.s31 { fill: #f4a269 } 
		.s32 { fill: #1c468a } 
		.s33 { fill: #f99746 } 
		.s34 { fill: #a06b47 } 
		.s35 { fill: #ce9a78 } 
		.s36 { fill: #d6a685 } 
		.s37 { fill: #7c4f31 } 
		.s38 { fill: #adc7e0 } 
		.s39 { fill: #2e3552 } 
	</style>
	<g id="Layer 1">
		<g id="&lt;Group&gt;">
			<g id="&lt;Group&gt;">
				<path id="&lt;Path&gt;" class="s0" d="m603.8 1138.2c2.3-38.5-3.1-77.3-12.6-114.5-50.6-198.1-3.6-370.2 116-497 225.1-239.2 701.8-295.3 904.6 22.6 57.4 90.2 132.1 178.6 220.4 239 75.3 51.8 200.2 102.3 272.3 53.9 75.8-50.8 162.5-84 253-85.2h0.1c169.7-2.2 303.6 107.8 401.6 246.3 89 125.8 116.1 262.3 84 401.4-21.9 96.1-73.7 193.2-130.7 259q0 0-0.1 0.1c-1.9 2.2-2.9 3.3-2.9 3.3l-2197.7 0.7q-1.1-2.1-2.2-4.1c-139.2-269.3 82.2-315.8 94.2-525.5z"/>
				<g id="&lt;Group&gt;" style="opacity: .5">
					<path id="&lt;Path&gt;" class="s1" d="m678.3 560.1q13.7-17.3 28.9-33.4h758.8v573.4h-862.3l-0.1-0.6q-0.9-15-3.3-31c-2.1-14.3-5.1-29.1-9.1-44.8-48.6-190.6-5.3-347.5 87.1-463.6z"/>
					<path id="&lt;Path&gt;" class="s2" d="m678.3 560.1h751.9v508.4h-829.9c-2.1-14.3-5.1-29.1-9.1-44.8-48.6-190.6-5.3-347.5 87.1-463.6z"/>
					<path id="&lt;Path&gt;" class="s2" d="m603.8 1138.2c0.7-12.1 0.7-24.8-0.1-38.1l-0.1-0.6h883.4c18 0 32.6 14.5 33.1 32.5q0.1 0.5 0.1 1v5.2z"/>
				</g>
				<g id="&lt;Group&gt;">
					<path id="&lt;Path&gt;" class="s3" d="m2211.7 786q0.8-0.3 1.7-0.6 2.8-1.1 5.6-2.1 1.3-0.5 2.6-0.9 3.6-1.3 7.3-2.6c41.3-14 84.4-22.2 128.6-22.8h0.1c37.5-0.5 75.7 4.5 114.2 16.1q3.6 1.1 7.3 2.3 1.3 0.4 2.5 0.8 2.8 0.9 5.7 1.9v115.5h-283.8v-104.3q4.1-1.7 8.2-3.3z"/>
					<path id="&lt;Path&gt;" class="s4" d="m2213.4 785.4q2.8-1.1 5.6-2.1 1.3-0.5 2.6-0.9 3.6-1.3 7.3-2.6c41.3-14 84.4-22.2 128.6-22.8h0.1c37.5-0.5 75.7 4.5 114.2 16.1q3.6 1.1 7.3 2.3v107.8h-267.4v-97.2q0.8-0.3 1.7-0.6z"/>
					<path id="&lt;Path&gt;" class="s0" d="m2221.6 782.4q3.6-1.3 7.3-2.6c41.3-14 84.4-22.2 128.6-22.8h0.1c37.5-0.5 75.7 4.5 114.2 16.1v100.8h-252.8v-90.6q1.3-0.5 2.6-0.9z"/>
				</g>
				<g id="&lt;Group&gt;">
					<path id="&lt;Path&gt;" class="s3" d="m1605.2 538.9q3.3 5.2 6.6 10.4 3 4.6 6 9.3c68 104.2 139.6 176.8 207 224.6q3.7 2.6 7.3 5.1 4.1 2.8 8.2 5.5v105.5h-283.7v-360.4z"/>
					<path id="&lt;Path&gt;" class="s4" d="m1611.8 549.3q3 4.6 6 9.3c68 104.2 139.6 176.8 207 224.6q3.7 2.6 7.3 5.1v100.6h-267.3v-339.6z"/>
					<path id="&lt;Path&gt;" class="s0" d="m1617.8 558.6c68 104.2 139.6 176.8 207 224.6v96.4h-252.7v-321z"/>
				</g>
			</g>
			<g id="&lt;Group&gt;">
				<path id="&lt;Path&gt;" class="s5" d="m1387.3 1039.7c0 0 27.4-10.5 43.1 2.7 15.8 13.2 26.6 81.2 21.2 93.9-5.4 12.6-21.2 20.2-21.2 20.2 0 0 3.3-7.5 2.1-13.3 0 0-4.5 14.7-16.5 17.5-12 2.8-54.8-0.6-63.1-4.2-9.6-4.1-15-8.3-17.4-20.2-2.4-11.9-12.1-117.6 51.8-96.6z"/>
				<g id="&lt;Group&gt;">
					<g id="&lt;Group&gt;">
						<g id="&lt;Group&gt;">
							<path id="&lt;Path&gt;" class="s6" d="m1253 1661.2l30.9-163 4.5-23.6 13.7 0.6-2.9 12.6h-0.1l-40 173.3c-0.4 1.5-1.9 2.5-3.6 2.5q-0.3 0-0.6-0.1c-1.3-0.1-2.1-1.2-1.9-2.3z"/>
						</g>
						<g id="&lt;Group&gt;">
							<path id="&lt;Path&gt;" class="s6" d="m1472.3 1474.6l2.4 12.8 33 173.8c0.2 1.1-0.7 2.2-1.9 2.3q-0.4 0.1-0.7 0.1c-1.7 0-3.1-1-3.5-2.5l-36.4-157.4-6.6-28.5z"/>
						</g>
						<path id="&lt;Path&gt;" class="s7" d="m1472.3 1474.6l2.4 12.8c0 0-8.6 4.7-9.5 16.3l-6.6-28.5z"/>
						<path id="&lt;Path&gt;" class="s7" d="m1288.4 1474.6l13.7 0.6-2.9 12.6h-0.1c-0.2 0.4-8.4 0.4-15.2 10.4z"/>
					</g>
					<path id="&lt;Path&gt;" class="s8" d="m1269.6 1458.6v-14.2c0-9.8 8-17.8 17.8-17.8h198.4c9.8 0 17.8 8 17.8 17.8v14.2c0 9.8-8 17.8-17.8 17.8h-198.4c-9.8 0-17.8-8-17.8-17.8z"/>
				</g>
				<path id="&lt;Path&gt;" class="s9" d="m1317.1 1368c5.9-32.7 23.1-70 23.1-70-12.5-52.2 0.2-110.9 0.2-110.9 6.8-1.9 13.8-3.2 20.9-4 0.9-4.7 3.4-18.7 4.5-30.8q0.2-2.1 0.3-4.1c0.2-3.4 0.2-6.5 0-9.1l8.8 0.6 36.1 2.4 1.6 0.1c0 0-0.3 3.2-0.3 8.1-0.1 8.8 0.3 22.9 3.4 32.9 15.6 1.6 26.1 3.9 26.1 3.9 10.2 1.7 8.1 65.1-11 114.3-8.7 22.7 16 57.7 16 66.6 0 8.9-131.8 11.8-129.7 0z"/>
				<path id="&lt;Path&gt;" class="s10" d="m1366.1 1148.2c1.9-2 5-5.2 8.8-8.5l36.1 2.4q0.9 3.6 1.3 8.2c0 0-9.5 15.1-23.7 14.8-10.9-0.2-19.4-8.8-22.8-12.8q0.2-2.1 0.3-4.1z"/>
				<path id="&lt;Path&gt;" class="s9" d="m1354.8 1122.2v-31.8c0-13.4 10.8-24.3 24.1-24.3h21.7c13.2 0 24 10.9 24 24.3v30.1c0 19.9-16.1 36.1-35.7 36.1-18.8 0-34.1-15.5-34.1-34.4z"/>
				<path id="&lt;Path&gt;" class="s11" d="m1400.7 1134.2c0 0-0.8 4.8-12.4 4.9 0 0-9.7 0.2-9.8-5 0 0 9.1-4.4 22.2 0.1z"/>
				<path id="&lt;Path&gt;" class="s12" d="m1287.1 1426.6c0 0 16.9-48.8 30-58.6 13.2-9.8 100.9-19.6 122.9-8.6 22 11 46.1 67.2 46.1 67.2z"/>
				<path id="&lt;Path&gt;" class="s13" d="m1300.3 1426.6c0 0 24.1-34.3 40.2-37.4 16-3.1 33.3 9 42.4 13.8 9 4.8 34.5-13.1 53.6-11.6 19 1.5 27.6 35.2 27.6 35.2z"/>
				<g id="&lt;Group&gt;">
					<path id="&lt;Path&gt;" class="s9" d="m1362.3 1538.9c-0.4-45.6 10.2-93.7 16.8-111 19.3-51.4 47.7-36.1 52.4-35 4.2 1.1 21.9 5.5 15 45.3-0.7 4.5-1.9 9.5-3.3 15.1-6.2 23-18.2 60.2-30 95.2q-2 6.1-4 12c-14.2 42-27 78-27 78l-22.7-1.7c0 0 3.1-54.1 2.8-97.9z"/>
					<path id="&lt;Path&gt;" class="s10" d="m1375.4 1548.9c32.5-5.9 70.5-109.1 71.1-110.7-0.7 4.5-1.9 9.5-3.3 15.1-6.2 23-18.2 60.2-30 95.2q-2 6.1-4 12c-24.6-3-54.7-7.8-33.8-11.6z"/>
					<path id="&lt;Path&gt;" class="s14" d="m1364.4 1539c6.6 3.1 13 5.2 19 6.6 16.8 4.2 29.8 2.9 29.8 2.9-15.7 46.9-25.1 94.6-25.1 94.6l-5.8-1.3-22.8-5c0 0 0.3-49.3 4.9-97.8z"/>
					<path id="&lt;Path&gt;" class="s15" d="m1383.4 1545.6c16.8 4.2 29.8 2.9 29.8 2.9-15.7 46.9-25.1 94.6-25.1 94.6l-5.8-1.3c8.7-25.8 1.1-96.2 1.1-96.2z"/>
					<g id="&lt;Group&gt;">
						<path id="&lt;Path&gt;" class="s12" d="m1359.5 1636.8c0.5-0.8 1.3-1.3 2.2-1.6 3.3-0.8 12.4-2 24.6 5.2 1 0.6 1.6 1.6 1.8 2.7 0.3 2.3 0.6 6.5 0 11.7q-0.3 2.4-0.9 5.1c-0.4 2-2.4 3.2-4.3 2.8l-26.5-5.7c-2-0.5-3.3-2.5-2.8-4.6q0.4-1.3 0.8-2.9c1.1-3.9 2.8-8.8 5.1-12.7z"/>
						<g id="&lt;Group&gt;">
							<path id="&lt;Path&gt;" class="s12" d="m1359.5 1636.8c0.2-0.2 5-6.8 14.8-5.7 9.9 1 13.5 11.2 13.7 11.5l-1.2-1.6c-0.1-0.1-3.5-7.5-12.6-8.5-9.1-0.9-13.4 3.6-13.4 3.7z"/>
						</g>
						<path id="&lt;Path&gt;" class="s12" d="m1369 1656.8c16 3.7 19.1-2 19.1-2q-0.3 2.4-0.9 5.1c-0.4 2-2.4 3.2-4.3 2.8l-26.5-5.7c-2-0.5-3.3-2.5-2.8-4.6q0.4-1.3 0.8-2.9c1.3 2 4.9 5 14.6 7.3z"/>
					</g>
				</g>
				<path id="&lt;Path&gt;" class="s16" d="m1319.2 1195c8.8-9.6 30.5-10.1 30.5-10.1 0 0 13.9 18 39.9 16.8 26-1.2 35-17.4 35-17.4 24-3.3 39.5 10.7 39.5 10.7 27.4 20.7 40.9 121.9 39.7 128.3 0 0.1-35.8 2.5-35.8 2.5-2-5.6-5.8-26.4-14.2-43.3 1.5 7.2 3.2 15.3 4.8 23.9 6.6 35.5 11.1 77.5-3.8 77.7-25.9 0.6-58.3-7.3-72.6-3.9-14.3 3.5-69.6 9.9-71.3-4.4-0.8-6.3 4.1-35.6 10.6-66.8 1.6-8 3.4-16.2 5.2-24.1-4.8 13-9.7 34.4-12.5 40.9l-36.7-0.6c13.5-86.1 33.1-120.7 41.7-130.2z"/>
				<path id="&lt;Path&gt;" class="s17" d="m1321.5 1309c0 0 38.9 46.4 73.9 46.7 35.1 0.4 63.2-49.3 63.2-49.3 6.6 35.5 11.1 77.5-3.8 77.7-25.9 0.6-58.3-7.3-72.6-3.9-14.3 3.5-69.6 9.9-71.3-4.4-0.8-6.3 4.1-35.6 10.6-66.8z"/>
				<path id="&lt;Path&gt;" class="s18" d="m1431.1 1183.8c-24.6 24.4-41.5 17.9-41.5 17.9 11.9-3.8 24.1-28 24.1-28 12.5 0.3 17.4 10.1 17.4 10.1z"/>
				<path id="&lt;Path&gt;" class="s18" d="m1362.5 1173.7c0 0 15.2 24.2 27.1 28 0 0-19.5 7.9-44.1-16.5 0 0 4.4-11.2 17-11.5z"/>
				<path id="&lt;Path&gt;" class="s19" d="m1389.4 1203.6c-1.1 0-2-0.9-2-2 0-1.1 0.9-1.9 2-1.9 1 0 1.9 0.8 1.9 1.9 0 1.1-0.9 2-1.9 2z"/>
				<path id="&lt;Path&gt;" class="s17" d="m1389.6 1255.1c-2.1 0-3.7-1.7-3.7-3.7 0-2.1 1.6-3.8 3.7-3.8 2 0 3.7 1.7 3.7 3.8 0 2-1.7 3.7-3.7 3.7z"/>
				<path id="&lt;Path&gt;" class="s17" d="m1389.6 1314.9c-2.1 0-3.7-1.7-3.7-3.8 0-2 1.6-3.7 3.7-3.7 2 0 3.7 1.7 3.7 3.7 0 2.1-1.7 3.8-3.7 3.8z"/>
				<path id="&lt;Path&gt;" class="s10" d="m1284 1423l-0.1-10.4c0 0-14.2-88.3-4.4-91.1 9.9-2.7 28.4 6.7 28.4 6.7l-5.8 84.4c0 2 0.4 3.9 0.8 5.7q0.4 0.1 0.8 0.2c9.6 2.8 3.8 22.9-3.4 23.2-5.3 0.3-12.1-7.7-16.8-10.5-2-1.2-1.4-6.8 0.5-8.2z"/>
				<path id="&lt;Path&gt;" class="s17" d="m1314.2 1325.8c0 0 2.3 12.4-3.4 14.2-5.6 1.9-34.5 2.8-36.3 0-1.8-2.7 0.7-23.6 5-25.1 4.3-1.6 32 4.1 34.7 10.9z"/>
				<path id="&lt;Path&gt;" class="s9" d="m1502.6 1321.5c9.9 2.8-4.3 91.1-4.3 91.1h-18.2l-5.8-84.4c0 0 18.5-9.4 28.3-6.7z"/>
				<path id="&lt;Path&gt;" class="s9" d="m1481.9 1441.7c-7.3-0.3-13.1-20.4-3.4-23.2 7-2 15.2 1.1 19.7 4.5 1.8 1.4 2.4 7 0.4 8.2-4.6 2.8-11.5 10.8-16.7 10.5z"/>
				<path id="&lt;Path&gt;" class="s9" d="m1498.3 1412.6l-0.2 14.3c-2.3-0.2-15.4 4.7-19.5-0.7-1.6-2.1 1.3-7.7 1.5-13.6 0.5-17.6 18.2 0 18.2 0z"/>
				<path id="&lt;Path&gt;" class="s17" d="m1502.6 1314.9c4.4 1.5 6.9 22.4 5.1 25.1-1.8 2.8-30.7 1.9-36.3 0-5.7-1.8-3.4-14.2-3.4-14.2 2.7-6.8 30.3-12.5 34.6-10.9z"/>
				<path id="&lt;Path&gt;" class="s5" d="m1385 1070.9c0 0-5.3 19.3-19.2 24.8 0 0 6.4-11.2 4.1-16.6 0 0-6.1 21.8-15.1 29.3 0 0-12.8-45.3 23.7-47.6 36.5-2.2 51.2 17.1 51.4 31 0.2 13.9-5.3 24.6-5.3 24.6 0 0-4-25.7-20-33.2-16-7.6-19.6-12.3-19.6-12.3z"/>
				<g id="&lt;Group&gt;">
					<path id="&lt;Path&gt;" class="s9" d="m1321.9 1444.4c-1.7-54.9 30.4-51.9 35.2-52.6 4.7-0.8 26.5-4.2 33.7 51.2 2.9 22.5 5.7 58.9 8.1 94.2 0.3 3.8 0.7 7.5 0.7 11.2 0.8 46.8 3.5 88.9 3.5 88.9l-26 5.4c0 0-15.4-45.7-30-94.1-12.6-42.2-24.6-86.4-25.2-104.2z"/>
					<path id="&lt;Path&gt;" class="s10" d="m1362.5 1550.2c31.7-10.8 28.3-107.2 28.3-107.2 2.9 22.5 5.7 58.9 8.1 94.2q0.4 5.7 0.7 11.2c-24.9 4.1-58.1 9-37.1 1.8z"/>
					<path id="&lt;Path&gt;" class="s14" d="m1368 1547.3c17.1-1.7 25.4-4.5 29-6.6 5.8 54.2 7.8 96.9 7.8 96.9l-27.7 5.1c0 0-2.9-8.5-7.3-22.1-5.9-17.9-14.4-44.5-22.7-72 8.1-0.3 15-0.7 20.9-1.3z"/>
					<g id="&lt;Group&gt;">
						<path id="&lt;Path&gt;" class="s19" d="m1377.1 1644.5c0.1-0.9 0.7-1.8 1.4-2.3 2.8-2.1 10.8-6.5 24.8-4.4 1.1 0.1 2.1 0.8 2.6 1.8 1.1 2 3 5.8 4.3 10.9q0.7 2.3 1.1 5c0.3 2-1.1 3.9-3 4.2l-26.7 4.6c-2 0.4-3.9-1-4.2-3.1q-0.2-1.4-0.4-3.1c-0.4-4-0.6-9.2 0.1-13.6z"/>
						<g id="&lt;Group&gt;">
							<path id="&lt;Path&gt;" class="s19" d="m1377.1 1644.5c0.1-0.3 2.1-8.2 11.6-10.9 9.6-2.8 16.7 5.3 16.9 5.6l-1.7-1.1c0 0-6-5.6-14.8-3.1-8.7 2.5-11.1 8.4-11.1 8.4z"/>
						</g>
						<path id="&lt;Path&gt;" class="s19" d="m1393.2 1659.4c16.3-2.5 17-8.9 17-8.9q0.7 2.3 1.1 5c0.3 2-1.1 3.9-3 4.2l-26.7 4.6c-2 0.4-3.9-1-4.2-3.1q-0.2-1.4-0.4-3.1c2 1.4 6.4 2.9 16.2 1.3z"/>
					</g>
				</g>
			</g>
			<g id="&lt;Group&gt;">
				<path id="&lt;Path&gt;" class="s12" d="m1974 1664.4c2.4-37.7 19.5-31.2 31.3-29.1 11.8 2.1 11.6 29.1 11.6 29.1z"/>
				<path id="&lt;Path&gt;" class="s12" d="m1886.5 1664.4c2.4-37.7 19.5-31.2 31.4-29.1 11.8 2.1 11.6 29.1 11.6 29.1z"/>
				<path id="&lt;Path&gt;" class="s13" d="m2036.6 1376.6c0 0 10.4 22.5 13.5 50.8h-166.9c0 0 15.3-49.4 29-54.9 13.7-5.4 124.4 4.1 124.4 4.1z"/>
				<path id="&lt;Path&gt;" class="s5" d="m1935.7 1112.9c0 0-9.1-17.8-1.3-66.6 2.6-15.9 38.1-11.3 38.1-11.3-1.3-1.4-1.5-6.7-1.5-6.7 4.1 3.8 18.4 6.9 18.4 6.9 44.6 7 51.4 39.9 39.2 60.3-10.3 17.2-25.8 38.5-25.8 38.5z"/>
				<g id="&lt;Group&gt;">
					<g id="&lt;Group&gt;">
						<g id="&lt;Group&gt;">
							<path id="&lt;Path&gt;" class="s6" d="m1830.9 1662l30.9-163 4.5-23.7 13.7 0.6-2.9 12.7-40.1 173.3c-0.3 1.4-1.8 2.5-3.5 2.5q-0.3 0-0.7-0.1c-1.2-0.2-2.1-1.2-1.9-2.3z"/>
						</g>
						<g id="&lt;Group&gt;">
							<path id="&lt;Path&gt;" class="s6" d="m2050.2 1475.3l2.5 12.9 32.9 173.8c0.2 1.1-0.6 2.1-1.9 2.3q-0.3 0.1-0.6 0.1c-1.7 0-3.2-1.1-3.6-2.5l-36.4-157.4-6.6-28.6z"/>
						</g>
						<path id="&lt;Path&gt;" class="s7" d="m2050.2 1475.3l2.5 12.9c0 0-8.6 4.7-9.6 16.3l-6.6-28.6z"/>
						<path id="&lt;Path&gt;" class="s7" d="m1866.3 1475.3l13.7 0.6-2.9 12.7c-0.3 0.4-8.5 0.4-15.3 10.4z"/>
					</g>
					<path id="&lt;Path&gt;" class="s20" d="m1847.5 1459.4v-14.2c0-9.8 8-17.8 17.8-17.8h198.5c9.7 0 17.7 8 17.7 17.8v14.2c0 9.8-8 17.8-17.7 17.8h-198.5c-9.8 0-17.8-8-17.8-17.8z"/>
				</g>
				<path id="&lt;Path&gt;" class="s9" d="m1895.1 1368.8c5.8-32.8 23-70 23-70-12.5-52.2 0.3-110.9 0.3-110.9 6.7-1.9 13.8-3.2 20.8-4 0.9-4.7 3.4-18.7 4.5-30.8q0.2-2.1 0.3-4.1c0.2-3.4 0.3-6.5 0.1-9.1l8.7 0.6 36.2 2.4 1.5 0.1c0 0-0.2 3.2-0.3 8.1-0.1 8.8 0.3 22.8 3.5 32.9 15.5 1.6 26.1 3.9 26.1 3.9 10.1 1.7 8 65.1-11 114.3-8.8 22.6 15.9 57.7 15.9 66.6 0 8.9-131.8 11.8-129.6 0z"/>
				<path id="&lt;Path&gt;" class="s10" d="m1944 1149c1.9-2 5-5.2 8.8-8.5l36.2 2.4q0.8 3.6 1.2 8.2c0 0-9.5 15.1-23.6 14.8-10.9-0.2-19.5-8.8-22.9-12.8q0.2-2.1 0.3-4.1z"/>
				<path id="&lt;Path&gt;" class="s9" d="m1935.2 1115.5l6.1-31.2c2.5-13.1 15.2-21.7 28.2-19.2l21.3 4.3c13 2.5 21.6 15.4 19 28.5l-5.7 29.5c-3.8 19.5-22.7 32.3-42 28.5-18.4-3.6-30.5-21.8-26.9-40.4z"/>
				<path id="&lt;Path&gt;" class="s11" d="m1978 1136.2c0 0-1.7 4.5-13.1 2.4 0 0-9.6-1.7-8.7-6.8 0 0 9.8-2.5 21.8 4.4z"/>
				<path id="&lt;Path&gt;" class="s21" d="m1897.1 1195.8c2.1-2.2 4.9-4 7.9-5.3 9.9-4.5 22.6-4.8 22.6-4.8 0 0 13.9 18 39.9 16.8 26-1.2 35.1-17.4 35.1-17.4 18.2-2.5 31.6 5 36.9 8.8 1.7 1.1 1.5 2.6 1.5 2.6 27.4 20.7 49.2 140.6 48 147.1q0 0.1-0.1 0.2l-0.5-0.2-19.8-10.5-17.8-9.5c-2.1-5.6-10.7-23.4-19.1-40.3 1.6 7.2 3.3 15.3 4.8 23.9 6.6 35.5 11.2 77.5-3.7 77.7-26 0.5-58.4-7.4-72.7-3.9-14.2 3.5-69.5 9.9-71.3-4.4-0.7-6.3 4.2-35.6 10.6-66.8q0.7-3.3 1.4-6.5c1.2-5.9 2.5-11.8 3.9-17.6-5.9 11.5-15.4 31.7-18.2 38.1l-9.5 4.8-31.5 15.9c0.9-58 43-139.2 51.6-148.7z"/>
				<path id="&lt;Path&gt;" class="s22" d="m1885.1 1322.4c0 0 44.7 48.2 66.4 64.4l-6.9 14.4c0 0-69-26.4-98.1-63.4z"/>
				<path id="&lt;Path&gt;" class="s22" d="m1945.9 1383.4c0 0 18.4 5.2 21.4 11 3 5.7 1.7 22.2-2.9 19.5-4.6-2.8-30.2-19.7-30.2-19.7z"/>
				<path id="&lt;Path&gt;" class="s18" d="m2009 1184.6c-24.6 24.3-41.5 17.9-41.5 17.9 11.9-3.8 24.1-28 24.1-28 12.5 0.3 17.4 10.1 17.4 10.1z"/>
				<path id="&lt;Path&gt;" class="s18" d="m1940.4 1174.5c0 0 15.2 24.2 27.1 28 0 0-19.9 6.4-44.5-17.9 0 0 4.8-9.8 17.4-10.1z"/>
				<path id="&lt;Path&gt;" class="s9" d="m2084.6 1340.3c-30.5 35.9-96.4 58.5-96.4 58.5l-6.4-14.7c22.4-15.3 68.8-61.7 68.8-61.7z"/>
				<path id="&lt;Path&gt;" class="s9" d="m2007.7 1393c0 0-28.4 11.4-33.5 13.1-5.1 1.7-3-14.7 1.1-19.7 4.1-5 23.1-6.4 23.1-6.4z"/>
				<path id="&lt;Path&gt;" class="s8" d="m1967.5 1255.9c-2 0-3.7-1.7-3.7-3.8 0-2 1.7-3.7 3.7-3.7 2.1 0 3.7 1.7 3.7 3.7 0 2.1-1.6 3.8-3.7 3.8z"/>
				<path id="&lt;Path&gt;" class="s8" d="m1967.5 1315.7c-2 0-3.7-1.7-3.7-3.8 0-2 1.7-3.7 3.7-3.7 2.1 0 3.7 1.7 3.7 3.7 0 2.1-1.6 3.8-3.7 3.8z"/>
				<path id="&lt;Path&gt;" class="s5" d="m2009.8 1097.9c0 0-1.1-12-8.7-13.9-7.6-1.9-35.9 8.3-41.9-0.1-6.1-8.3-10.7-11.7-14.8-7.6-4.2 4.2-1.3-24.9-0.2-25.3 1-0.5 64 3.1 64 3.1l14.9 15.9-0.7 18.2z"/>
				<path id="&lt;Path&gt;" class="s16" d="m1968.1 1421.9c1.3-16 19-29.2 37.9-30.8 18.8-1.6 33.8 17.6 38.4 50.8 1.7 12-0.3 41.1-3.5 73.2-5.5 56.5-14.9 122.6-14.9 122.6-12.4 4.8-23.9 6.2-33.5 6.2-16.2-0.2-26.9-4.6-26.9-4.6 0 0 1.2-201.3 2.5-217.4z"/>
				<path id="&lt;Path&gt;" class="s18" d="m2039.5 1193.9c1.7 1.1 2.5 1.9 2.5 1.9 27.5 20.7 49.7 134.5 47 147.8h-0.6l-19.8-10.5-17.8-9.5c-2.1-5.6-11.5-17.7-19.1-40.3l-7-25.1c-10.3-12.4 6-47.5 14.8-64.3z"/>
				<path id="&lt;Path&gt;" class="s18" d="m2049.3 1320.1c0 0 11.2 2 22.6 8.3 6.7 3.7 13.5 8.9 18 16.1 0 0-9.1 15.1-21.7 16.1l-22.8-20-8.8-7.8z"/>
				<path id="&lt;Path&gt;" class="s15" d="m2049.3 1320.1c0 0 11.2 2 22.6 8.3 0 0-11.2 12-26.5 12.2l-8.8-7.8z"/>
				<path id="&lt;Path&gt;" class="s18" d="m1914.5 1252.1l-13.7 51.2c1.2-5.9 2.5-11.8 3.9-17.6-5 12-12.6 28.9-18.2 38.1l-9.5 4.8-13.1 6.6-18.4 9.3c0.6-39.2 19.7-89.1 34.9-120.2 7.3-14.8 13.1-25.6 15.9-28.7 2.1-2.2 5.7-3.8 8.7-5.1 2.7 8.8 15.5 52.6 9.5 61.6z"/>
				<path id="&lt;Path&gt;" class="s18" d="m1870.6 1325.5c9.4-3.8 17.4-5 17.4-5l10.8 12.3-5.7 5-25.9 22.8c-12.6-1-21.7-16.1-21.7-16.1 5.8-9.4 16.1-15.3 25.1-19z"/>
				<path id="&lt;Path&gt;" class="s15" d="m1888 1320.5l10.8 12.3-5.7 5c-10.4-1.5-22.5-12.3-22.5-12.3 9.4-3.8 17.4-5 17.4-5z"/>
				<g id="&lt;Group&gt;">
					<path id="&lt;Path&gt;" class="s16" d="m1904.8 1435.6c11-31.6 29.5-47.5 47.7-42.1 18.1 5.3 32.9 21.8 31 37.7-0.2 2-0.9 6.6-2.1 13.1-8.4 47.8-37.9 200.5-37.9 200.5 0 0-28.7 5.7-58.9-13.6 0 0 1.1-20.2 3.1-47.7 3.6-51 10-127.3 17.1-147.9z"/>
					<path id="&lt;Path&gt;" class="s17" d="m1981.2 1436.3c0 0.3 0.1 3.2 0.2 8-8.4 47.8-37.9 200.5-37.9 200.5 0 0-28.7 5.7-58.9-13.6 0 0 1.1-20.2 3.1-47.7 75.2-4.9 93.1-144.2 93.5-147.2z"/>
				</g>
				<path id="&lt;Path&gt;" class="s17" d="m2040.9 1515.1c-5.5 56.5-14.9 122.6-14.9 122.6-12.4 4.8-23.9 6.2-33.5 6.2 28.8-32.3 48.1-127.2 48.4-128.8z"/>
				<path id="&lt;Path&gt;" class="s15" d="m1862.6 1334.2q0.7 0.5 1.3 1l-18.4 9.3c-1.6-40.9 19.7-89.1 34.9-120.2-0.9 2.4-36.6 96.3-17.8 109.9z"/>
			</g>
			<g id="&lt;Group&gt;">
				<path id="&lt;Path&gt;" class="s13" d="m2266.4 1128c0 0-16.3-33.1-19-50.3-2.7-17.2 11.2-33.7 20.9-39.4 10.6-6.2 23.6-0.4 47.6-1.8 33.6-2 36 42.6 32.9 60.8-3.2 18.2-12.9 30.7-12.9 30.7z"/>
				<path id="&lt;Path&gt;" class="s12" d="m2307.3 1664.4c2.4-37.7 19.5-31.2 31.3-29.1 11.9 2.1 11.7 29.1 11.7 29.1z"/>
				<path id="&lt;Path&gt;" class="s12" d="m2246.3 1664.4c2.4-37.7 19.5-31.2 31.3-29.1 11.9 2.1 11.6 29.1 11.6 29.1z"/>
				<path id="&lt;Path&gt;" class="s23" d="m2369.9 1376.6c0 0 10.4 22.5 13.6 50.8h-167c0 0 15.3-49.4 29-54.9 13.7-5.4 124.4 4.1 124.4 4.1z"/>
				<g id="&lt;Group&gt;">
					<g id="&lt;Group&gt;">
						<g id="&lt;Group&gt;">
							<path id="&lt;Path&gt;" class="s6" d="m2164.2 1662l30.9-163 4.5-23.7 13.7 0.6-2.9 12.7-40.1 173.3c-0.3 1.4-1.8 2.5-3.5 2.5q-0.3 0-0.6-0.1c-1.3-0.2-2.2-1.2-2-2.3z"/>
						</g>
						<g id="&lt;Group&gt;">
							<path id="&lt;Path&gt;" class="s6" d="m2383.6 1475.3l2.4 12.9 32.9 173.8c0.2 1.1-0.6 2.1-1.9 2.3q-0.3 0.1-0.6 0.1c-1.7 0-3.2-1.1-3.6-2.5l-36.4-157.4-6.6-28.6z"/>
						</g>
						<path id="&lt;Path&gt;" class="s7" d="m2383.6 1475.3l2.4 12.9c0 0-8.6 4.7-9.6 16.3l-6.6-28.6z"/>
						<path id="&lt;Path&gt;" class="s7" d="m2199.6 1475.3l13.7 0.6-2.9 12.7c-0.3 0.4-8.5 0.4-15.3 10.4z"/>
					</g>
					<path id="&lt;Path&gt;" class="s24" d="m2180.8 1459.4v-14.2c0-9.8 8-17.8 17.8-17.8h198.5c9.8 0 17.8 8 17.8 17.8v14.2c0 9.8-8 17.8-17.8 17.8h-198.5c-9.8 0-17.8-8-17.8-17.8z"/>
				</g>
				<path id="&lt;Path&gt;" class="s9" d="m2228.4 1368.8c5.9-32.8 23-70 23-70-12.4-52.2 0.3-110.9 0.3-110.9 6.7-1.9 13.8-3.2 20.9-4 0.8-4.7 3.4-18.7 4.4-30.8q0.2-2.1 0.3-4.1c0.2-3.4 0.3-6.5 0.1-9.1l8.8 0.6 36.1 2.4 1.5 0.1c0 0-0.2 3.2-0.3 8.1-0.1 8.8 0.3 22.8 3.5 32.9 15.5 1.6 26.1 3.9 26.1 3.9 10.1 1.7 8 65.1-11 114.3-8.8 22.6 16 57.7 16 66.6 0 8.9-131.8 11.8-129.7 0z"/>
				<path id="&lt;Path&gt;" class="s10" d="m2277.3 1149c1.9-2 5-5.2 8.9-8.5l36.1 2.4q0.8 3.6 1.2 8.2c0 0-9.4 15.1-23.6 14.8-10.9-0.2-19.5-8.8-22.9-12.8q0.2-2.1 0.3-4.1z"/>
				<path id="&lt;Path&gt;" class="s9" d="m2266 1123v-31.8c0-13.4 10.9-24.3 24.1-24.3h21.7c13.2 0 24.1 10.9 24.1 24.3v30.1c0 19.9-16.1 36.1-35.8 36.1-18.7 0-34.1-15.5-34.1-34.4z"/>
				<path id="&lt;Path&gt;" class="s11" d="m2311.9 1135c0 0-0.7 4.8-12.3 4.9 0 0-9.8 0.2-9.9-5 0 0 9.2-4.4 22.2 0.1z"/>
				<path id="&lt;Path&gt;" class="s21" d="m2230.5 1195.8c2-2.2 4.8-4 7.8-5.3 9.9-4.5 22.7-4.8 22.7-4.8 0 0 13.8 18 39.8 16.8 26-1.2 35.1-17.4 35.1-17.4 18.2-2.5 31.6 5 36.9 8.8 1.7 1.1 2.6 1.9 2.6 1.9 27.4 20.7 48.1 141.3 46.9 147.8q0 0.1-0.1 0.2l-0.5-0.2-19.7-10.5-17.9-9.5c-2-5.6-10.7-23.4-19.1-40.3 1.6 7.2 3.3 15.3 4.8 23.9 6.6 35.5 11.2 77.5-3.7 77.7-26 0.5-58.4-7.4-72.6-3.9-14.3 3.5-69.6 9.9-71.4-4.4-0.7-6.3 4.2-35.6 10.6-66.8q0.7-3.3 1.4-6.5c1.3-5.9 2.6-11.8 3.9-17.6-5.9 11.5-15.4 31.7-18.2 38.1l-9.5 4.8-31.5 15.9c0.9-58 43-139.2 51.7-148.7z"/>
				<path id="&lt;Path&gt;" class="s22" d="m2218.4 1322.4c0 0 44.7 48.2 66.5 64.4l-7 14.4c0 0-69-26.4-98.1-63.4z"/>
				<path id="&lt;Path&gt;" class="s22" d="m2279.2 1383.4c0 0 18.4 5.2 21.4 11 3 5.7 1.7 22.2-2.9 19.5-4.6-2.8-30.2-19.7-30.2-19.7z"/>
				<path id="&lt;Path&gt;" class="s17" d="m2342.3 1184.6c-24.6 24.3-41.5 17.9-41.5 17.9 11.9-3.8 24.1-28 24.1-28 12.5 0.3 17.4 10.1 17.4 10.1z"/>
				<path id="&lt;Path&gt;" class="s17" d="m2273.7 1174.5c0 0 15.3 24.2 27.1 28 0 0-19.9 6.4-44.5-17.9 0 0 4.9-9.8 17.4-10.1z"/>
				<path id="&lt;Path&gt;" class="s9" d="m2417.9 1340.3c-30.5 35.9-96.4 58.5-96.4 58.5l-6.4-14.7c22.4-15.3 68.9-61.7 68.9-61.7z"/>
				<path id="&lt;Path&gt;" class="s9" d="m2341.1 1393c0 0-28.5 11.4-33.6 13.1-5.1 1.7-3-14.7 1.1-19.7 4.1-5 23.1-6.4 23.1-6.4z"/>
				<path id="&lt;Path&gt;" class="s8" d="m2300.8 1255.9c-2 0-3.7-1.7-3.7-3.8 0-2 1.7-3.7 3.7-3.7 2.1 0 3.7 1.7 3.7 3.7 0 2.1-1.6 3.8-3.7 3.8z"/>
				<path id="&lt;Path&gt;" class="s8" d="m2300.8 1315.7c-2 0-3.7-1.7-3.7-3.8 0-2 1.7-3.7 3.7-3.7 2.1 0 3.7 1.7 3.7 3.7 0 2.1-1.6 3.8-3.7 3.8z"/>
				<path id="&lt;Path&gt;" class="s13" d="m2335.9 1091.2c0 0-3.4-11.6-11.2-12-7.8-0.3-33.7 15.1-41.2 8.2-7.5-7-12.7-9.5-16-4.6-3.2 4.9-5.9-24.3-5-24.9 0.9-0.6 63.4-9.4 63.4-9.4l17.7 12.7 2.7 18z"/>
				<path id="&lt;Path&gt;" class="s8" d="m2301.4 1421.9c1.3-16 19-29.2 37.9-30.8 18.9-1.6 33.8 17.6 38.4 50.8 1.7 12-0.3 41.1-3.4 73.2-5.6 56.5-14.9 122.6-14.9 122.6-12.5 4.8-24 6.2-33.6 6.2-16.2-0.2-26.9-4.6-26.9-4.6 0 0 1.2-201.3 2.5-217.4z"/>
				<path id="&lt;Path&gt;" class="s8" d="m2222.9 1441.8c4.7-33.2 19.7-52.4 38.6-50.7 18.8 1.6 36.5 14.9 37.7 30.9 0.2 2 0.3 6.6 0.4 13.3 1 48.5 1.4 204.1 1.4 204.1 0 0-27.1 11.2-60.4-1.8 0 0-2.7-20-6.1-47.3-6.3-50.8-14.7-127-11.6-148.5z"/>
				<path id="&lt;Path&gt;" class="s19" d="m2372.8 1193.9c1.7 1.1 2.6 1.9 2.6 1.9 27.4 20.7 48.1 141.3 46.9 147.8h-0.6l-19.7-10.5-17.9-9.5c-2-5.6-10.7-23.4-19.1-40.3l-6.9-25.1c-10.4-12.4 5.9-47.5 14.7-64.3z"/>
				<path id="&lt;Path&gt;" class="s19" d="m2382.6 1320.1c0 0 11.2 2 22.6 8.3 6.7 3.7 13.5 8.9 18 16.1 0 0-9.1 15.1-21.7 16.1l-22.8-20-8.8-7.8z"/>
				<path id="&lt;Path&gt;" class="s17" d="m2382.6 1320.1c0 0 11.2 2 22.6 8.3 0 0-11.2 12-26.5 12.2l-8.8-7.8z"/>
				<path id="&lt;Path&gt;" class="s19" d="m2214.1 1224.3q0 0 0 0c7.3-14.8 13.6-25.4 16.4-28.5 2-2.2 4.8-4 7.8-5.3 2.7 8.8 15.5 52.6 9.5 61.6l-13.7 51.2c1.3-5.9 2.6-11.8 3.9-17.6-5.9 11.5-15.4 31.7-18.2 38.1l-9.5 4.8-13.1 6.6-18.4 9.3c0.6-39.2 20.1-89.1 35.3-120.2z"/>
				<path id="&lt;Path&gt;" class="s19" d="m2203.9 1325.5c9.4-3.8 17.4-5 17.4-5l10.8 12.3-5.7 5-25.9 22.8c-12.6-1-21.7-16.1-21.7-16.1 5.9-9.4 16.1-15.3 25.1-19z"/>
				<path id="&lt;Path&gt;" class="s17" d="m2221.3 1320.5l10.8 12.3-5.7 5c-10.4-1.5-22.5-12.3-22.5-12.3 9.4-3.8 17.4-5 17.4-5z"/>
				<path id="&lt;Path&gt;" class="s5" d="m2297.9 1427.4c0 0.4 0.7 3.2 1.7 7.9 1 48.5 1.4 204.1 1.4 204.1 0 0-27.1 11.2-60.4-1.8 0 0-2.7-20-6.1-47.4 72.8-19.6 63.6-159.7 63.4-162.8z"/>
				<path id="&lt;Path&gt;" class="s5" d="m2374.3 1515.1c-5.6 56.5-14.9 122.6-14.9 122.6-12.5 4.8-24 6.2-33.6 6.2 28.8-32.3 48.1-127.2 48.5-128.8z"/>
				<path id="&lt;Path&gt;" class="s17" d="m2195.9 1334.2q0.8 0.5 1.3 1l-18.4 9.3c0.6-39.2 20.1-89.1 35.3-120.2-0.9 2.4-36.9 96.3-18.2 109.9z"/>
			</g>
			<g id="&lt;Group&gt;">
				<g id="&lt;Group&gt;">
					<g id="&lt;Group&gt;">
						<g id="&lt;Group&gt;">
							<path id="&lt;Path&gt;" class="s6" d="m814.9 1662l30.9-163 4.5-23.7 13.7 0.6-2.9 12.7-40.1 173.2c-0.4 1.5-1.8 2.6-3.5 2.6q-0.3 0-0.7-0.1c-1.2-0.2-2.1-1.2-1.9-2.3z"/>
						</g>
						<g id="&lt;Group&gt;">
							<path id="&lt;Path&gt;" class="s6" d="m1034.2 1475.3l2.5 12.9 32.9 173.8c0.2 1.1-0.6 2.1-1.9 2.3q-0.3 0.1-0.6 0.1c-1.7 0-3.2-1.1-3.6-2.6l-36.4-157.3-6.6-28.6z"/>
						</g>
						<path id="&lt;Path&gt;" class="s7" d="m1034.2 1475.3l2.5 12.9c0 0-8.6 4.7-9.6 16.3l-6.6-28.6z"/>
						<path id="&lt;Path&gt;" class="s7" d="m850.3 1475.3l13.7 0.6-2.9 12.7c-0.3 0.4-8.5 0.4-15.3 10.4z"/>
					</g>
					<path id="&lt;Path&gt;" class="s8" d="m831.5 1459.4v-14.2c0-9.8 8-17.8 17.8-17.8h198.5c9.7 0 17.7 8 17.7 17.8v14.2c0 9.8-8 17.8-17.7 17.8h-198.5c-9.8 0-17.8-8-17.8-17.8z"/>
				</g>
				<path id="&lt;Path&gt;" class="s13" d="m950.9 1033.9c0 0 36.6-7.9 59 8.9 22.4 16.7 7.3 56.6 16.1 67 8.8 10.3 19 14.2 8.8 34.9-10.3 20.7 10.2 26.4 10.2 41.3 0 14.9-21.3 19.3-21.8 32.6-0.6 13.3-66.9 25.6-95.2 26.1-28.3 0.5-60.9-33.9-64.8-40.6-3.9-6.7-14.2-36.7 0-52 14.1-15.3 2.9-35.9 8.2-47.8 5.4-11.8 25.9-18.7 22.5-28.5-3.4-9.9 3.9-52.7 57-41.9z"/>
				<path id="&lt;Path&gt;" class="s9" d="m879.1 1368.8c5.8-32.8 23-70 23-70-12.5-52.2 0.3-110.9 0.3-110.9 6.7-1.9 13.8-3.2 20.8-4 0.9-4.7 3.4-18.7 4.5-30.8q0.2-2.1 0.3-4.1c0.2-3.4 0.3-6.5 0.1-9.1l8.7 0.6 36.2 2.4 1.5 0.1c0 0-0.2 3.2-0.3 8.1-0.1 8.8 0.3 22.8 3.5 32.9 15.5 1.6 26 3.9 26 3.9 10.2 1.7 8.1 65.1-10.9 114.3-8.8 22.6 15.9 57.7 15.9 66.6 0 8.9-131.8 11.8-129.6 0z"/>
				<path id="&lt;Path&gt;" class="s10" d="m928 1149c1.9-2 5-5.2 8.8-8.5l36.2 2.4q0.8 3.6 1.2 8.2c0 0-9.5 15-23.7 14.8-10.8-0.2-19.4-8.8-22.8-12.8q0.2-2.1 0.3-4.1z"/>
				<path id="&lt;Path&gt;" class="s9" d="m916.7 1123v-31.8c0-13.4 10.9-24.3 24.1-24.3h21.7c13.2 0 24.1 10.9 24.1 24.3v30.1c0 19.9-16.1 36.1-35.8 36.1-18.7 0-34.1-15.5-34.1-34.4z"/>
				<path id="&lt;Path&gt;" class="s11" d="m962.6 1135c0 0-0.7 4.8-12.3 4.9 0 0-9.8 0.2-9.9-5 0 0 9.1-4.4 22.2 0.1z"/>
				<path id="&lt;Path&gt;" class="s13" d="m967.6 1044.8c22.2-5.5 50.9 65.5 18 57.5-32.9-8-36.1-45.3-36.1-45.3 0 0-4.2-6.8 18.1-12.2z"/>
				<path id="&lt;Path&gt;" class="s13" d="m953.5 1057c0 0-3.1 37.3-36 45.3-33 8-4.2-63 18-57.5 22.2 5.4 18 12.2 18 12.2z"/>
				<path id="&lt;Path&gt;" class="s12" d="m849.1 1427.4c0 0 16.8-48.8 30-58.6 13.1-9.9 100.8-19.6 122.8-8.6 22 11 46.1 67.2 46.1 67.2z"/>
				<path id="&lt;Path&gt;" class="s13" d="m862.2 1427.4c0 0 24.2-34.4 40.2-37.4 16-3.1 33.3 9 42.4 13.8 9 4.8 34.5-13.1 53.6-11.6 19.1 1.5 27.6 35.2 27.6 35.2z"/>
				<path id="&lt;Path&gt;" class="s9" d="m937.6 1541.9c-2.9-45.4 4.9-94.1 10.4-111.8 16.4-52.3 45.6-38.8 50.4-37.9 4.3 0.8 22.2 4.1 17.6 44.3-0.5 4.6-1.3 9.6-2.5 15.2-4.8 23.4-14.7 61.2-24.5 96.9q-1.7 6.2-3.3 12.2c-11.8 42.7-22.5 79.4-22.5 79.4l-22.7-0.3c0 0 0-54.2-2.9-98z"/>
				<path id="&lt;Path&gt;" class="s9" d="m873 1438.2c4-54.8 35.5-48.4 40.4-48.6 4.8-0.3 26.8-1.3 28.2 54.5 0.5 22.7-0.4 59.2-1.7 94.6-0.1 3.7-0.1 7.5-0.4 11.2-4 46.5-5.7 88.8-5.7 88.8l-26.4 2.6c0 0-10.7-47.1-20.1-96.8-8.3-43.3-15.6-88.5-14.3-106.3z"/>
				<path id="&lt;Path&gt;" class="s10" d="m951.3 1551.2c32.1-7.8 64.2-113.1 64.7-114.7-0.5 4.6-1.3 9.6-2.5 15.2-4.8 23.4-14.7 61.2-24.5 96.9q-1.7 6.2-3.3 12.2c-24.7-1.6-55-4.6-34.4-9.6z"/>
				<path id="&lt;Path&gt;" class="s10" d="m902.3 1547.8c32.7-7.4 39.3-103.7 39.3-103.7 0.5 22.7-0.4 59.2-1.7 94.6q-0.2 5.6-0.4 11.2c-25.2 1.4-58.8 2.7-37.2-2.1z"/>
				<path id="&lt;Path&gt;" class="s14" d="m908.1 1545.4c17.2 0.1 25.8-1.7 29.5-3.5 0.2 54.5-2.2 97.2-2.2 97.2l-28 2.2c0 0-2-8.8-5.1-22.8-3.9-18.4-9.7-45.8-15-74 8 0.6 14.9 0.9 20.8 0.9z"/>
				<path id="&lt;Path&gt;" class="s15" d="m908.1 1545.4c17.2 0.1 28-3.2 31.8-4.9 0.1 54.5-4.5 98.6-4.5 98.6l-28 2.2c0 0-2-8.8-5.1-22.8 17.8-17.3 5.8-73.1 5.8-73.1z"/>
				<g id="&lt;Group&gt;">
					<path id="&lt;Path&gt;" class="s19" d="m907 1642.6c0.2-0.9 0.8-1.7 1.6-2.1 3-1.8 11.4-5.4 25.2-1.8 1 0.2 1.9 1 2.4 2.1 0.8 2.1 2.3 6 3.1 11.2q0.4 2.4 0.6 5.2c0.1 2-1.5 3.7-3.5 3.8l-27 1.8c-2 0.1-3.8-1.5-3.9-3.6q0-1.4 0-3.1c0-4 0.3-9.2 1.5-13.5z"/>
					<g id="&lt;Group&gt;">
						<path id="&lt;Path&gt;" class="s19" d="m907 1642.6c0.1-0.3 2.9-8 12.7-9.7 9.8-1.7 16 7.1 16.2 7.4l-1.6-1.2c0-0.1-5.4-6.3-14.4-4.7-8.9 1.6-11.9 7.2-11.9 7.2z"/>
					</g>
					<path id="&lt;Path&gt;" class="s12" d="m921.5 1659.2c16.4-0.9 17.8-7.2 17.8-7.2q0.4 2.4 0.6 5.2c0.1 2-1.5 3.7-3.5 3.8l-27 1.8c-2 0.1-3.8-1.5-3.9-3.6q0-1.4 0-3.1c1.8 1.6 6 3.6 16 3.1z"/>
				</g>
				<path id="&lt;Path&gt;" class="s14" d="m939.8 1541.9c6.7 2.7 13.3 4.5 19.3 5.6 17 3.1 29.9 1.1 29.9 1.1-13 47.7-19.7 95.9-19.7 95.9l-5.8-0.9-23-3.7c0 0-2.6-49.3-0.7-98z"/>
				<path id="&lt;Path&gt;" class="s15" d="m959.1 1547.5c17 3.1 29.9 1.1 29.9 1.1-13 47.7-19.7 95.9-19.7 95.9l-5.8-0.9c7.2-26.4-4.4-96.1-4.4-96.1z"/>
				<g id="&lt;Group&gt;">
					<path id="&lt;Path&gt;" class="s19" d="m940.5 1639.9c0.4-0.8 1.2-1.5 2-1.7 3.4-1.1 12.3-2.8 25 3.7 1 0.5 1.6 1.5 1.8 2.6 0.5 2.2 1 6.4 0.7 11.7q-0.1 2.4-0.6 5.1c-0.3 2-2.2 3.4-4.1 3l-26.8-4.1c-2-0.4-3.4-2.3-3-4.4q0.3-1.4 0.6-3c0.9-4 2.3-9 4.4-12.9z"/>
					<g id="&lt;Group&gt;">
						<path id="&lt;Path&gt;" class="s19" d="m940.5 1639.9c0.2-0.2 4.6-7.1 14.5-6.6 9.9 0.4 14 10.4 14.2 10.7l-1.3-1.5c0-0.1-3.9-7.3-13-7.8-9.1-0.4-13.2 4.4-13.2 4.5z"/>
					</g>
					<path id="&lt;Path&gt;" class="s12" d="m951.1 1659.2c16.2 2.8 18.9-3 18.9-3q-0.1 2.4-0.6 5.1c-0.3 2-2.2 3.4-4.1 3l-26.8-4.1c-2-0.4-3.4-2.3-3-4.4q0.3-1.4 0.6-3c1.4 1.9 5.2 4.8 15 6.4z"/>
				</g>
				<path id="&lt;Path&gt;" class="s8" d="m881.1 1195.8c8.8-9.6 30.5-10.1 30.5-10.1 0 0 13.9 18 39.9 16.8 26-1.2 35-17.4 35-17.4 24.1-3.3 39.5 10.7 39.5 10.7 27.5 20.7 48.2 141.4 47 147.8q-0.1 0.1-0.1 0.2l-20.3-10.7-17.8-9.5c-2.1-5.6-10.7-23.4-19.1-40.3 1.6 7.2 3.3 15.3 4.8 23.9 6.6 35.5 11.2 77.5-3.7 77.7-26 0.5-58.4-7.4-72.7-3.9-14.2 3.4-69.5 9.9-71.3-4.4-0.7-6.3 4.2-35.6 10.6-66.8 1.7-8 3.4-16.2 5.2-24.1-5.8 11.5-15.3 31.7-18.1 38.1l-9.5 4.8-31.5 15.9c0.9-58 43-139.2 51.6-148.7z"/>
				<path id="&lt;Path&gt;" class="s5" d="m883.4 1309.8c0 0 38.9 46.4 74 46.7 35 0.4 63.1-49.3 63.1-49.3 6.6 35.5 11.2 77.5-3.7 77.7-26 0.5-58.4-7.4-72.7-3.9-14.2 3.4-69.5 9.9-71.3-4.4-0.7-6.3 4.2-35.6 10.6-66.8z"/>
				<path id="&lt;Path&gt;" class="s22" d="m868.6 1323.6c0 0 53 38.7 77.4 50.4l-4.1 15.5c0 0-75.9-15.2-111.5-45.9z"/>
				<path id="&lt;Path&gt;" class="s22" d="m946 1374c0 0 18.2-5.7 23.8-2.5 5.6 3.2 13.4 17.7 8.1 18-5.4 0.2-36 0-36 0z"/>
				<path id="&lt;Path&gt;" class="s18" d="m993 1184.6c-24.6 24.3-41.5 17.9-41.5 17.9 11.9-3.8 24.1-28 24.1-28 12.5 0.3 17.4 10.1 17.4 10.1z"/>
				<path id="&lt;Path&gt;" class="s5" d="m1055.4 1330.3c-0.7 1.5-1.6 2.3-2.8 2.8l-17.8-9.5c-2.1-5.6-10.7-23.4-19.1-40.3 0 0 45.1 36.2 39.7 47z"/>
				<path id="&lt;Path&gt;" class="s18" d="m924.9 1174.3c0 0 14.7 24.4 26.6 28.2 0 0-19.1 7.8-43.7-16.5 0 0 4.6-11.4 17.1-11.7z"/>
				<path id="&lt;Path&gt;" class="s5" d="m888.6 1285.7c-5.8 11.5-15.3 31.7-18.1 38.1l-9.5 4.8q-2.4-0.2-4.8-1.6c-12.5-7 32.4-41.3 32.4-41.3z"/>
				<path id="&lt;Path&gt;" class="s9" d="m1073 1343.6c-35.6 30.7-111.5 45.9-111.5 45.9l-4.1-15.5c24.4-11.7 77.4-50.4 77.4-50.4z"/>
				<path id="&lt;Path&gt;" class="s9" d="m961.5 1389.5c0 0-30.6 0.2-36 0-5.4-0.3 2.4-14.8 8-18 5.6-3.2 23.9 2.5 23.9 2.5z"/>
				<path id="&lt;Path&gt;" class="s18" d="m1033.3 1320.1c0 0 11.2 2 22.6 8.3 6.7 3.7 13.5 8.9 18 16.1 0 0-9.1 15.1-21.7 16.1l-22.8-20-8.8-7.8z"/>
				<path id="&lt;Path&gt;" class="s18" d="m854.6 1325.5c9.4-3.8 17.4-5.1 17.4-5.1l10.8 12.4-5.7 5-25.9 22.8c-12.6-1-21.7-16.1-21.7-16.1 5.8-9.4 16.1-15.3 25.1-19z"/>
				<path id="&lt;Path&gt;" class="s15" d="m872 1320.4l10.8 12.4-5.7 5c-10.4-1.5-22.5-12.3-22.5-12.3 9.4-3.8 17.4-5.1 17.4-5.1z"/>
				<path id="&lt;Path&gt;" class="s15" d="m1033.3 1320.1c0 0 11.2 2 22.6 8.3 0 0-11.2 12-26.5 12.2l-8.8-7.8z"/>
				<path id="&lt;Path&gt;" class="s19" d="m951.3 1204.4c-1.1 0-2-0.9-2-2 0-1.1 0.9-2 2-2 1 0 1.9 0.9 1.9 2 0 1.1-0.9 2-1.9 2z"/>
				<path id="&lt;Path&gt;" class="s25" d="m951.5 1255.9c-2 0-3.7-1.7-3.7-3.8 0-2 1.7-3.7 3.7-3.7 2 0 3.7 1.7 3.7 3.7 0 2.1-1.7 3.8-3.7 3.8z"/>
				<path id="&lt;Path&gt;" class="s25" d="m951.5 1315.7c-2 0-3.7-1.7-3.7-3.8 0-2 1.7-3.7 3.7-3.7 2 0 3.7 1.7 3.7 3.7 0 2.1-1.7 3.8-3.7 3.8z"/>
			</g>
			<g id="&lt;Group&gt;">
				<path id="&lt;Path&gt;" class="s13" d="m1701.9 1033.1c0 0 45.9-9.6 54.5 29.9 7.2 32.8-27.2 75-27.2 75h-61c0 0-68.2-113 33.7-104.9z"/>
				<g id="&lt;Group&gt;">
					<g id="&lt;Group&gt;">
						<g id="&lt;Group&gt;">
							<path id="&lt;Path&gt;" class="s6" d="m1562.9 1662l30.9-163 4.5-23.7 13.7 0.6-2.9 12.7-40.1 173.2c-0.3 1.5-1.8 2.6-3.5 2.6q-0.3 0-0.7-0.1c-1.2-0.2-2.1-1.2-1.9-2.3z"/>
						</g>
						<g id="&lt;Group&gt;">
							<path id="&lt;Path&gt;" class="s6" d="m1782.2 1475.3l2.5 12.9 32.9 173.8c0.2 1.1-0.6 2.1-1.9 2.3q-0.3 0.1-0.6 0.1c-1.7 0-3.2-1.1-3.6-2.6l-36.4-157.3-6.6-28.6z"/>
						</g>
						<path id="&lt;Path&gt;" class="s7" d="m1782.2 1475.3l2.5 12.9c0 0-8.6 4.7-9.6 16.3l-6.6-28.6z"/>
						<path id="&lt;Path&gt;" class="s7" d="m1598.3 1475.3l13.7 0.6-2.9 12.7c-0.3 0.4-8.5 0.4-15.3 10.4z"/>
					</g>
					<path id="&lt;Path&gt;" class="s8" d="m1579.5 1459.4v-14.2c0-9.8 8-17.8 17.8-17.8h198.5c9.7 0 17.7 8 17.7 17.8v14.2c0 9.8-8 17.8-17.7 17.8h-198.5c-9.8 0-17.8-8-17.8-17.8z"/>
				</g>
				<path id="&lt;Path&gt;" class="s9" d="m1627.1 1368.8c5.8-32.8 23-70 23-70-12.5-52.2 0.3-110.9 0.3-110.9 6.7-1.9 13.8-3.2 20.8-4 0.9-4.7 3.4-18.7 4.5-30.8q0.2-2.1 0.3-4.1c0.2-3.4 0.3-6.5 0.1-9.1l8.7 0.6 36.2 2.4 1.5 0.1c0 0-0.2 3.2-0.3 8.1-0.1 8.8 0.3 22.8 3.5 32.9 15.5 1.6 26.1 3.9 26.1 3.9 10.1 1.7 8 65.1-11 114.3-8.8 22.6 15.9 57.7 15.9 66.6 0 8.9-131.8 11.8-129.6 0z"/>
				<path id="&lt;Path&gt;" class="s10" d="m1676 1149c1.9-2 5-5.2 8.8-8.5l36.2 2.4q0.8 3.6 1.2 8.2c0 0-9.5 15-23.6 14.8-10.9-0.2-19.5-8.8-22.9-12.8q0.2-2.1 0.3-4.1z"/>
				<path id="&lt;Path&gt;" class="s9" d="m1664.7 1123v-31.8c0-13.4 10.9-24.3 24.1-24.3h21.7c13.2 0 24.1 10.9 24.1 24.3v30.1c0 19.9-16.1 36.1-35.8 36.1-18.7 0-34.1-15.5-34.1-34.4z"/>
				<path id="&lt;Path&gt;" class="s12" d="m1597.1 1427.4c0 0 16.8-48.8 30-58.6 13.1-9.9 100.8-19.6 122.8-8.6 22 11 46.1 67.2 46.1 67.2z"/>
				<path id="&lt;Path&gt;" class="s13" d="m1610.2 1427.4c0 0 24.2-34.4 40.2-37.4 16.1-3.1 33.3 9 42.4 13.8 9 4.8 34.5-13.1 53.6-11.6 19.1 1.5 27.7 35.2 27.7 35.2z"/>
				<path id="&lt;Path&gt;" class="s9" d="m1685.6 1541.9c-2.9-45.4 4.9-94.1 10.4-111.8 16.4-52.3 45.6-38.8 50.4-37.9 4.3 0.8 22.2 4.1 17.6 44.3-0.5 4.6-1.3 9.6-2.5 15.2-4.8 23.4-14.7 61.2-24.5 96.9q-1.6 6.2-3.3 12.2c-11.8 42.7-22.5 79.4-22.5 79.4l-22.7-0.3c0 0 0-54.2-2.9-98z"/>
				<path id="&lt;Path&gt;" class="s9" d="m1621 1438.2c4-54.8 35.5-48.4 40.4-48.6 4.8-0.3 26.8-1.3 28.2 54.5 0.5 22.7-0.4 59.2-1.7 94.6-0.1 3.7-0.1 7.5-0.4 11.2-4 46.5-5.7 88.8-5.7 88.8l-26.4 2.6c0 0-10.7-47.1-20.1-96.8-8.3-43.3-15.6-88.5-14.3-106.3z"/>
				<path id="&lt;Path&gt;" class="s10" d="m1699.3 1551.2c32.1-7.8 64.2-113.1 64.7-114.7-0.5 4.6-1.3 9.6-2.5 15.2-4.8 23.4-14.7 61.2-24.5 96.9q-1.6 6.2-3.3 12.2c-24.7-1.6-55-4.6-34.4-9.6z"/>
				<path id="&lt;Path&gt;" class="s10" d="m1650.3 1547.8c32.7-7.4 39.3-103.7 39.3-103.7 0.5 22.7-0.4 59.2-1.7 94.6q-0.2 5.6-0.4 11.2c-25.2 1.4-58.8 2.7-37.2-2.1z"/>
				<path id="&lt;Path&gt;" class="s14" d="m1656.1 1545.4c17.2 0.1 25.8-1.7 29.5-3.5 0.2 54.5-2.2 97.2-2.2 97.2l-28 2.2c0 0-2-8.8-5-22.8-4-18.4-9.8-45.8-15.1-74 8 0.6 14.9 0.9 20.8 0.9z"/>
				<path id="&lt;Path&gt;" class="s15" d="m1656.1 1545.4c17.2 0.1 28-3.2 31.8-4.9 0.1 54.5-4.5 98.6-4.5 98.6l-28 2.2c0 0-2-8.8-5-22.8 17.7-17.3 5.7-73.1 5.7-73.1z"/>
				<g id="&lt;Group&gt;">
					<path id="&lt;Path&gt;" class="s19" d="m1655 1642.6c0.2-0.9 0.8-1.7 1.6-2.1 3.1-1.8 11.4-5.4 25.2-1.8 1 0.2 1.9 1 2.4 2.1 0.8 2.1 2.3 6 3.1 11.2q0.4 2.4 0.6 5.2c0.1 2-1.5 3.7-3.5 3.8l-27 1.8c-2 0.1-3.8-1.5-3.8-3.6q-0.1-1.4-0.1-3.1c0-4 0.3-9.2 1.5-13.5z"/>
					<g id="&lt;Group&gt;">
						<path id="&lt;Path&gt;" class="s19" d="m1655 1642.6c0.1-0.3 3-8 12.7-9.7 9.8-1.7 16 7.1 16.2 7.4l-1.5-1.2c-0.1-0.1-5.5-6.3-14.4-4.7-9 1.6-12 7.2-12 7.2z"/>
					</g>
					<path id="&lt;Path&gt;" class="s12" d="m1669.5 1659.2c16.4-0.9 17.8-7.2 17.8-7.2q0.4 2.4 0.6 5.2c0.1 2-1.5 3.7-3.5 3.8l-27 1.8c-2 0.1-3.8-1.5-3.8-3.6q-0.1-1.4-0.1-3.1c1.8 1.6 6 3.6 16 3.1z"/>
				</g>
				<path id="&lt;Path&gt;" class="s14" d="m1687.8 1541.9c6.7 2.7 13.3 4.5 19.3 5.6 17 3.1 29.9 1.1 29.9 1.1-13 47.7-19.6 95.9-19.6 95.9l-5.9-0.9-23-3.7c0 0-2.6-49.3-0.7-98z"/>
				<path id="&lt;Path&gt;" class="s15" d="m1707.1 1547.5c17 3.1 29.9 1.1 29.9 1.1-13 47.7-19.6 95.9-19.6 95.9l-5.9-0.9c7.2-26.4-4.4-96.1-4.4-96.1z"/>
				<g id="&lt;Group&gt;">
					<path id="&lt;Path&gt;" class="s19" d="m1688.5 1639.9c0.4-0.8 1.2-1.5 2.1-1.7 3.3-1.1 12.2-2.8 24.9 3.7 1 0.5 1.7 1.5 1.9 2.6 0.4 2.2 0.9 6.4 0.6 11.7q-0.1 2.4-0.5 5.1c-0.4 2-2.3 3.4-4.2 3l-26.7-4.1c-2.1-0.4-3.5-2.3-3.1-4.4q0.3-1.4 0.6-3c0.9-4 2.3-9 4.4-12.9z"/>
					<g id="&lt;Group&gt;">
						<path id="&lt;Path&gt;" class="s19" d="m1688.5 1639.9c0.2-0.2 4.6-7.1 14.5-6.6 9.9 0.4 14 10.4 14.2 10.7l-1.2-1.5c-0.1-0.1-4-7.3-13.1-7.8-9.1-0.4-13.2 4.4-13.2 4.5z"/>
					</g>
					<path id="&lt;Path&gt;" class="s12" d="m1699.1 1659.2c16.2 2.8 18.9-3 18.9-3q-0.1 2.4-0.5 5.1c-0.4 2-2.3 3.4-4.2 3l-26.7-4.1c-2.1-0.4-3.5-2.3-3.1-4.4q0.3-1.4 0.6-3c1.4 1.9 5.2 4.8 15 6.4z"/>
				</g>
				<path id="&lt;Path&gt;" class="s8" d="m1629.1 1195.8c8.8-9.6 30.5-10.1 30.5-10.1 0 0 13.9 18 39.9 16.8 26-1.2 35.1-17.4 35.1-17.4 24-3.3 39.4 10.7 39.4 10.7 27.5 20.7 48.2 141.4 47 147.8q0 0.1-0.1 0.2l-20.3-10.7-17.8-9.5c-2.1-5.6-10.7-23.4-19.1-40.3 1.6 7.2 3.3 15.3 4.8 23.9 6.6 35.5 11.2 77.5-3.7 77.7-26 0.5-58.4-7.4-72.7-3.9-14.2 3.4-69.5 9.9-71.3-4.4-0.7-6.3 4.2-35.6 10.6-66.8 1.7-8 3.5-16.2 5.3-24.1-5.9 11.5-15.4 31.7-18.2 38.1l-9.5 4.8-31.5 15.9c0.9-58 43-139.2 51.6-148.7z"/>
				<path id="&lt;Path&gt;" class="s5" d="m1631.4 1309.8c0 0 38.9 46.4 74 46.7 35 0.4 63.1-49.3 63.1-49.3 6.6 35.5 11.2 77.5-3.7 77.7-26 0.5-58.4-7.4-72.7-3.9-14.2 3.4-69.5 9.9-71.3-4.4-0.7-6.3 4.2-35.6 10.6-66.8z"/>
				<path id="&lt;Path&gt;" class="s22" d="m1616.6 1323.6c0 0 53 38.7 77.4 50.4l-4.1 15.5c0 0-75.9-15.2-111.5-45.9z"/>
				<path id="&lt;Path&gt;" class="s22" d="m1694 1374c0 0 18.2-5.7 23.8-2.5 5.7 3.2 13.5 17.7 8.1 18-5.4 0.2-36 0-36 0z"/>
				<path id="&lt;Path&gt;" class="s18" d="m1741 1184.6c-24.6 24.3-41.5 17.9-41.5 17.9 11.9-3.8 24.1-28 24.1-28 12.5 0.3 17.4 10.1 17.4 10.1z"/>
				<path id="&lt;Path&gt;" class="s5" d="m1803.4 1330.3c-0.7 1.5-1.6 2.3-2.8 2.8l-17.8-9.5c-2.1-5.6-10.7-23.4-19.1-40.3 0 0 45.1 36.2 39.7 47z"/>
				<path id="&lt;Path&gt;" class="s18" d="m1672.4 1174.5c0 0 15.2 24.2 27.1 28 0 0-19.9 6.4-44.5-17.9 0 0 4.9-9.8 17.4-10.1z"/>
				<path id="&lt;Path&gt;" class="s5" d="m1636.7 1285.7c-5.9 11.5-15.4 31.7-18.2 38.1l-9.5 4.8q-2.3-0.2-4.8-1.6c-12.5-7 32.5-41.3 32.5-41.3z"/>
				<path id="&lt;Path&gt;" class="s9" d="m1821 1343.6c-35.6 30.7-111.5 45.9-111.5 45.9l-4.1-15.5c24.4-11.7 77.4-50.4 77.4-50.4z"/>
				<path id="&lt;Path&gt;" class="s9" d="m1709.5 1389.5c0 0-30.6 0.2-36 0-5.4-0.3 2.4-14.8 8-18 5.7-3.2 23.9 2.5 23.9 2.5z"/>
				<path id="&lt;Path&gt;" class="s18" d="m1781.3 1320.1c0 0 11.2 2 22.6 8.3 6.7 3.7 13.5 8.9 18 16.1 0 0-9.1 15.1-21.7 16.1l-22.8-20-8.8-7.8z"/>
				<path id="&lt;Path&gt;" class="s18" d="m1602.6 1325.5c9.4-3.8 17.4-5.1 17.4-5.1l10.8 12.4-5.7 5-25.9 22.8c-12.6-1-21.7-16.1-21.7-16.1 5.8-9.4 16.1-15.3 25.1-19z"/>
				<path id="&lt;Path&gt;" class="s15" d="m1620 1320.4l10.8 12.4-5.7 5c-10.4-1.5-22.5-12.3-22.5-12.3 9.4-3.8 17.4-5.1 17.4-5.1z"/>
				<path id="&lt;Path&gt;" class="s15" d="m1781.3 1320.1c0 0 11.2 2 22.6 8.3 0 0-11.2 12-26.5 12.2l-8.8-7.8z"/>
				<path id="&lt;Path&gt;" class="s19" d="m1699.3 1204.4c-1.1 0-2-0.9-2-2 0-1.1 0.9-2 2-2 1.1 0 1.9 0.9 1.9 2 0 1.1-0.8 2-1.9 2z"/>
				<path id="&lt;Path&gt;" class="s25" d="m1699.5 1255.9c-2 0-3.7-1.7-3.7-3.8 0-2 1.7-3.7 3.7-3.7 2.1 0 3.7 1.7 3.7 3.7 0 2.1-1.6 3.8-3.7 3.8z"/>
				<path id="&lt;Path&gt;" class="s25" d="m1699.5 1315.7c-2 0-3.7-1.7-3.7-3.8 0-2 1.7-3.7 3.7-3.7 2.1 0 3.7 1.7 3.7 3.7 0 2.1-1.6 3.8-3.7 3.8z"/>
				<path id="&lt;Path&gt;" class="s13" d="m1746.2 1077.7c0 0 43.5 4.5 31.9 47-11.5 42.5-5.6 49.8-5.6 49.8 0 0-5.1 0-9-4 0 0 2 3.3 9.5 15.2 16 25.3-24.6 40.1-24.6 40.1 0 0 6.5-16.7-4.5-22.5-21.1-11.2-29.9-40.3-16.7-53.1 30.2-29.5 19-72.5 19-72.5z"/>
				<path id="&lt;Path&gt;" class="s13" d="m1674 1150.2c13.1 12.8 4.3 41.9-16.7 53.1-11 5.8-4.5 22.5-4.5 22.5 0 0-40.6-14.8-24.7-40.1 7.6-11.9 9.6-15.2 9.6-15.2-4 4-9 4-9 4 0 0 5.9-7.3-5.7-49.8-11.5-42.5 32-47 32-47 0 0-11.3 43 19 72.5z"/>
				<path id="&lt;Path&gt;" class="s13" d="m1734.6 1099.2c0 0-23.6 2.5-31.5-2.7 0 0-5.2-15.7 0-19.8 0 0-9.7 8.4-7.9 19.5 0 0-14.7-0.4-18-2.2 0 0 1-7.1 3-10.1 0 0-5.1 5.7-6.2 9.8 0 0-10.8 1.2-13.1-2.9-2.2-4.1 17.4-54 48.5-40.1 31.1 13.9 34.1 39.8 25.2 48.5z"/>
				<path id="&lt;Path&gt;" class="s8" d="m1757.3 1076.7c0 0 4.4 2.8 4.1 5.6-0.2 2.9-10.9 12.9-10.9 12.9z"/>
				<path id="&lt;Path&gt;" class="s8" d="m1652.9 1095.2c0 0-10.6-10-10.9-12.9-0.3-2.8 4.2-5.6 4.2-5.6z"/>
			</g>
			<g id="&lt;Group&gt;">
				<path id="&lt;Path&gt;" class="s13" d="m2537.9 1042c0 0 25.4-14.8 43.1-4.3 17.6 10.5 39.2 75.8 35.9 89.2-3.3 13.4-17.7 23.4-17.7 23.4 0 0 2.1-7.9-0.1-13.4 0 0-2.1 15.2-13.5 19.9-11.4 4.7-54.2 8.3-62.9 6.2-10.1-2.5-16.2-5.8-20.5-17.2-4.2-11.3-30.6-114 35.7-103.8z"/>
				<g id="&lt;Group&gt;">
					<g id="&lt;Group&gt;">
						<g id="&lt;Group&gt;">
							<path id="&lt;Path&gt;" class="s6" d="m2416.6 1662l30.9-163 4.4-23.7 13.7 0.6-2.9 12.7-40.1 173.2c-0.3 1.5-1.8 2.6-3.5 2.6q-0.3 0-0.6-0.1c-1.3-0.2-2.1-1.2-1.9-2.3z"/>
						</g>
						<g id="&lt;Group&gt;">
							<path id="&lt;Path&gt;" class="s6" d="m2635.9 1475.3l2.4 12.9 33 173.8c0.2 1.1-0.7 2.1-2 2.3q-0.3 0.1-0.6 0.1c-1.7 0-3.2-1.1-3.5-2.6l-36.4-157.3-6.6-28.6z"/>
						</g>
						<path id="&lt;Path&gt;" class="s7" d="m2635.9 1475.3l2.4 12.9c0 0-8.6 4.7-9.5 16.3l-6.6-28.6z"/>
						<path id="&lt;Path&gt;" class="s7" d="m2451.9 1475.3l13.7 0.6-2.9 12.7c-0.2 0.4-8.5 0.4-15.2 10.4z"/>
					</g>
					<path id="&lt;Path&gt;" class="s8" d="m2433.2 1459.4v-14.2c0-9.8 8-17.8 17.7-17.8h198.5c9.8 0 17.8 8 17.8 17.8v14.2c0 9.8-8 17.8-17.8 17.8h-198.5c-9.7 0-17.7-8-17.7-17.8z"/>
				</g>
				<path id="&lt;Path&gt;" class="s9" d="m2480.7 1368.8c5.9-32.8 23-70 23-70-12.4-52.2 0.3-110.9 0.3-110.9 6.8-1.9 13.8-3.2 20.9-4 0.9-4.7 3.4-18.7 4.4-30.8q0.2-2.1 0.4-4.1c0.2-3.4 0.2-6.5 0-9.1l8.8 0.6 36.1 2.4 1.5 0.1c0 0-0.2 3.2-0.2 8.1-0.2 8.8 0.3 22.8 3.4 32.9 15.6 1.6 26.1 3.9 26.1 3.9 10.2 1.7 8 65.1-11 114.3-8.7 22.6 16 57.7 16 66.6 0 8.9-131.8 11.8-129.7 0z"/>
				<path id="&lt;Path&gt;" class="s10" d="m2529.7 1149c1.8-2 5-5.2 8.8-8.5l36.1 2.4q0.8 3.6 1.3 8.2c0 0-9.5 15-23.7 14.8-10.9-0.2-19.5-8.8-22.9-12.8q0.2-2.1 0.4-4.1z"/>
				<path id="&lt;Path&gt;" class="s9" d="m2519.1 1128.8l-5.1-31.4c-2.2-13.2 6.8-25.7 19.9-27.9l21.3-3.5c13.1-2.2 25.6 6.8 27.7 20l4.8 29.7c3.2 19.6-10.1 38.3-29.5 41.5-18.5 3.1-36.1-9.7-39.1-28.4z"/>
				<path id="&lt;Path&gt;" class="s11" d="m2566.3 1133.1c0 0 0 4.9-11.4 6.9 0 0-9.6 1.8-10.5-3.3 0 0 8.3-5.9 21.9-3.6z"/>
				<path id="&lt;Path&gt;" class="s12" d="m2450.7 1427.4c0 0 16.8-48.8 30-58.6 13.2-9.9 100.8-19.6 122.9-8.6 22 11 46 67.2 46 67.2z"/>
				<path id="&lt;Path&gt;" class="s13" d="m2463.9 1427.4c0 0 24.1-34.4 40.2-37.4 16-3.1 33.3 9 42.3 13.8 9.1 4.8 34.5-13.1 53.6-11.6 19.1 1.5 27.7 35.2 27.7 35.2z"/>
				<g id="&lt;Group&gt;">
					<path id="&lt;Path&gt;" class="s9" d="m2488.8 1433.3c13.9-53.1 43.7-41 48.5-40.3 4.8 0.6 26.7 3.6 17.9 58.7-3.5 22.5-11 58.2-18.6 92.8-0.8 3.6-1.5 7.3-2.5 10.9-12.3 45-21.6 86.3-21.6 86.3l-26.5-2.3c0 0-1.9-48.3-2.3-98.9-0.3-44 0.6-89.9 5.1-107.2z"/>
					<path id="&lt;Path&gt;" class="s10" d="m2498 1546.5c33.4-1.3 57.2-94.8 57.2-94.8-3.5 22.5-11 58.2-18.6 92.8q-1.3 5.5-2.5 10.9c-25-3.2-58.3-8.1-36.1-8.9z"/>
					<path id="&lt;Path&gt;" class="s14" d="m2504.1 1545.2c16.9 3.3 25.6 3.1 29.6 2-9.6 53.7-19.7 95.2-19.7 95.2l-28-3c0 0-0.3-9-0.8-23.4-0.6-18.8-1.3-46.7-1.5-75.5 7.8 2.1 14.6 3.6 20.4 4.7z"/>
					<path id="&lt;Path&gt;" class="s15" d="m2504.1 1545.2c16.9 3.3 28.1 2.1 32.1 1-9.7 53.7-22.2 96.2-22.2 96.2l-28-3c0 0-0.3-9-0.8-23.4 20.6-13.6 18.9-70.8 18.9-70.8z"/>
					<g id="&lt;Group&gt;">
						<path id="&lt;Path&gt;" class="s19" d="m2485.4 1640.6c0.4-0.9 1.2-1.5 2-1.8 3.3-1.2 12.2-3.2 25.1 2.9 1 0.4 1.7 1.4 2 2.5 0.4 2.2 1.2 6.3 1 11.6q0 2.5-0.4 5.2c-0.2 2-2.1 3.4-4 3.1l-26.9-3.2c-2-0.2-3.5-2.2-3.2-4.2q0.2-1.4 0.5-3.1c0.8-4 2-9 3.9-13z"/>
						<g id="&lt;Group&gt;">
							<path id="&lt;Path&gt;" class="s19" d="m2485.4 1640.6c0.2-0.3 4.4-7.3 14.3-7.2 9.9 0.1 14.4 10 14.6 10.3l-1.3-1.5c-0.1-0.1-4.2-7.2-13.3-7.3-9.2-0.1-13 4.9-13.1 4.9z"/>
						</g>
						<path id="&lt;Path&gt;" class="s12" d="m2496.7 1659.5c16.3 2.2 18.8-3.7 18.8-3.7q0 2.5-0.4 5.2c-0.2 2-2.1 3.4-4 3.1l-26.9-3.2c-2-0.2-3.5-2.2-3.2-4.2q0.2-1.4 0.5-3.1c1.5 1.9 5.3 4.6 15.2 5.9z"/>
					</g>
				</g>
				<g id="&lt;Group&gt;">
					<path id="&lt;Path&gt;" class="s9" d="m2555.4 1550.9c-15-42.9-20.4-91.9-19.9-110.4 1.8-54.9 33.6-49.8 38.4-50.3 4.3-0.4 22.4-2.1 28.8 37.8 0.7 4.6 1.3 9.7 1.6 15.4 1.6 23.8 2.2 63 2.4 100q0 6.3 0 12.6c0.1 44.4-0.4 82.6-0.4 82.6l-22 5.9c0 0-14.5-52.2-28.9-93.6z"/>
					<path id="&lt;Path&gt;" class="s10" d="m2571 1556.1c28.8-16.2 31.6-126.3 31.7-128.1 0.7 4.6 1.3 9.7 1.6 15.4 1.6 23.8 2.2 63 2.4 100q0 6.3 0 12.6c-24.2 5.2-54.2 10.6-35.7 0.1z"/>
					<path id="&lt;Path&gt;" class="s14" d="m2555 1549.9c7.2 0.7 16.4 1.1 22.5 0.5 17.3-1.6 29.2-7 29.2-7 0.2 49.5 6.6 97.7 6.6 97.7l-5.9 0.7-23.1 2.7c0 0-18.1-47.2-29.3-94.6z"/>
					<path id="&lt;Path&gt;" class="s15" d="m2577.5 1550.4c17.3-1.6 29.2-7 29.2-7 0.2 49.5 6.6 97.7 6.6 97.7l-5.9 0.7c0-27.4-29.9-91.4-29.9-91.4z"/>
					<g id="&lt;Group&gt;">
						<path id="&lt;Path&gt;" class="s19" d="m2584.9 1644c0.3-0.9 1-1.6 1.8-2 3.1-1.5 11.7-4.6 25.2-0.1 1.1 0.3 1.9 1.2 2.3 2.3 0.7 2.1 1.9 6.1 2.4 11.4q0.2 2.4 0.2 5.2c0 2-1.7 3.6-3.7 3.6l-27-0.1c-2.1 0-3.8-1.7-3.7-3.8q0.1-1.4 0.2-3.1c0.2-4 0.9-9.2 2.3-13.4z"/>
						<g id="&lt;Group&gt;">
							<path id="&lt;Path&gt;" class="s19" d="m2584.9 1644c0.2-0.2 3.5-7.7 13.3-8.8 9.9-1 15.5 8.2 15.8 8.5l-1.5-1.3c-0.1-0.1-5-6.7-14.1-5.7-9.1 1-12.4 6.4-12.4 6.4z"/>
						</g>
						<path id="&lt;Path&gt;" class="s12" d="m2598.3 1661.5c16.5 0.3 18.3-5.9 18.3-5.9q0.2 2.4 0.2 5.2c0 2-1.7 3.6-3.7 3.6l-27-0.1c-2.1 0-3.8-1.7-3.7-3.8q0.1-1.4 0.2-3.1c1.6 1.7 5.8 4 15.7 4.1z"/>
					</g>
				</g>
				<path id="&lt;Path&gt;" class="s8" d="m2482.8 1195.8c8.7-9.6 30.5-10.1 30.5-10.1 0 0 13.8 18 39.8 16.8 26.1-1.2 35.1-17.4 35.1-17.4 24-3.3 39.5 10.7 39.5 10.7 27.4 20.7 40.9 121.9 39.7 128.3 0 0.1-35.8 2.5-35.8 2.5-2.1-5.7-5.9-26.4-14.3-43.3 1.6 7.2 3.3 15.3 4.9 23.9 6.5 35.5 11.1 77.5-3.8 77.7-25.9 0.5-58.4-7.4-72.6-3.9-14.3 3.4-69.6 9.9-71.3-4.4-0.8-6.3 4.1-35.6 10.6-66.8 1.6-8 3.4-16.2 5.2-24.1-4.9 12.9-9.7 34.4-12.6 40.9l-36.6-0.6c13.5-86.1 33-120.7 41.7-130.2z"/>
				<path id="&lt;Path&gt;" class="s5" d="m2485.1 1309.8c0 0 38.9 46.4 73.9 46.7 35.1 0.4 63.2-49.3 63.2-49.3 6.5 35.5 11.1 77.5-3.8 77.7-25.9 0.5-58.4-7.4-72.6-3.9-14.3 3.4-69.6 9.9-71.3-4.4-0.8-6.3 4.1-35.6 10.6-66.8z"/>
				<path id="&lt;Path&gt;" class="s18" d="m2594.7 1184.6c-24.7 24.3-41.5 17.9-41.5 17.9 11.8-3.8 24-28 24-28 12.6 0.3 17.5 10.1 17.5 10.1z"/>
				<path id="&lt;Path&gt;" class="s18" d="m2526 1174.5c0 0 15.3 24.2 27.2 28 0 0-20 6.4-44.6-17.9 0 0 4.9-9.8 17.4-10.1z"/>
				<path id="&lt;Path&gt;" class="s19" d="m2552.9 1204.4c-1.1 0-1.9-0.9-1.9-2 0-1.1 0.8-2 1.9-2 1.1 0 2 0.9 2 2 0 1.1-0.9 2-2 2z"/>
				<path id="&lt;Path&gt;" class="s25" d="m2553.2 1255.9c-2.1 0-3.7-1.7-3.7-3.8 0-2 1.6-3.7 3.7-3.7 2 0 3.6 1.7 3.6 3.7 0 2.1-1.6 3.8-3.6 3.8z"/>
				<path id="&lt;Path&gt;" class="s25" d="m2553.2 1315.7c-2.1 0-3.7-1.7-3.7-3.8 0-2 1.6-3.7 3.7-3.7 2 0 3.6 1.7 3.6 3.7 0 2.1-1.6 3.8-3.6 3.8z"/>
				<path id="&lt;Path&gt;" class="s9" d="m2447.6 1423.8l-0.1-10.4c0 0-14.3-88.4-4.4-91.1 9.8-2.7 28.4 6.7 28.4 6.7l-5.9 84.4c0.1 2 0.5 3.9 0.9 5.7q0.4 0.1 0.7 0.2c9.7 2.8 3.9 22.9-3.3 23.2-5.3 0.3-12.1-7.7-16.8-10.5-2-1.2-1.4-6.8 0.5-8.2z"/>
				<path id="&lt;Path&gt;" class="s5" d="m2477.7 1326.6c0 0 2.3 12.4-3.3 14.2-5.7 1.9-34.5 2.8-36.3 0-1.8-2.7 0.7-23.6 5-25.1 4.3-1.6 32 4.1 34.6 10.9z"/>
				<path id="&lt;Path&gt;" class="s9" d="m2642.1 1419.3q0.3-0.1 0.7-0.2c0.4-1.8 0.8-3.7 0.9-5.7l-5.9-84.4c0 0 18.6-9.4 28.4-6.7 9.9 2.7-4.4 91.1-4.4 91.1l-0.1 10.4c1.9 1.4 2.5 7 0.5 8.2-4.6 2.8-11.5 10.8-16.8 10.5-7.2-0.3-13-20.4-3.3-23.2z"/>
				<path id="&lt;Path&gt;" class="s5" d="m2666.2 1315.7c4.3 1.5 6.8 22.4 5 25.1-1.8 2.8-30.6 1.9-36.3 0-5.6-1.8-3.3-14.2-3.3-14.2 2.6-6.8 30.3-12.5 34.6-10.9z"/>
				<path id="&lt;Path&gt;" class="s13" d="m2540.7 1073.2c0 0-2.2 20-15 27.6 0 0 4.5-12 1.4-17.1 0 0-2.6 22.6-10.2 31.5 0 0-19.9-42.6 15.7-50.8 35.7-8.2 53.3 8.5 55.7 22.1 2.4 13.7-1.2 25.2-1.2 25.2 0 0-8.1-24.8-25.1-29.6-17-4.8-21.3-8.9-21.3-8.9z"/>
			</g>
			<g id="&lt;Group&gt;">
				<path id="&lt;Path&gt;" class="s9" d="m558.8 892.5c0 0 61.2 123.8 68.9 143.6 3 7.6 111.8-26.2 111.8-26.2 0 0 9.2-8.1 10.1-17.1 0.2-2.3 2.9-4.8 6.9-7.2l32.6 9.4c-3.3 8.2-7.3 16.2-9.6 18.3-4.7 4.3-33 16.7-33 16.7-17.4 17.3-126 61.6-135.7 56.3-10.2-5.5-57.3-91.3-75.6-113.9-18.2-22.7-11-96.9 23.6-79.9z"/>
				<path id="&lt;Path&gt;" class="s26" d="m869.7 881.1l32.9 8.9-61.8 117.6-79-19.2-66-23.9 45-120.3 63.9 49.2z"/>
				<path id="&lt;Path&gt;" class="s14" d="m761.8 986.3l45-108.9c0 0 54.8-19.7 90 3.8l-57.5 116.1c0 0-30.9-23.1-77.5-11z"/>
				<path id="&lt;Path&gt;" class="s15" d="m737.4 835.3c46.1-2.8 69.4 42.1 69.4 42.1l-45 108.9c-14.1-24.7-71.5-26.8-71.5-26.8z"/>
				<path id="&lt;Path&gt;" class="s27" d="m696.6 1603c0 0-6.5 31 0 39.5 6.5 8.6 24.3 10.5 23.9 22.7h-86c0 0 3-21.8 12-31.1 9.1-9.3 18.1-63.5 18.1-63.5z"/>
				<path id="&lt;Path&gt;" class="s27" d="m577.2 1603c0 0-6.5 31 0 39.5 6.5 8.6 24.2 10.5 23.8 22.7h-85.9c0 0 2.9-21.8 12-31.1 9-9.3 18-63.5 18-63.5z"/>
				<path id="&lt;Path&gt;" class="s28" d="m409 1212.2c16.9-12.6 49.7-13.7 88.2-8.9 65.2 8.3 146.6 33.8 193.9 49.9 23.9 8.2 39.1 14 39.1 14 2.9 3.3 4.5 7.1 5.1 11.1 2.8 19.7-19.3 45.7-28.2 58.6-1 1.6-4.5 2.9-9.9 4-7.4 1.6-18.6 2.8-32.2 3.7-12.4 0.7-26.8 1.3-42.4 1.6q-0.1 0-0.3 0c-17.9 0.3-37.5 0.3-57.4 0.1-55.8-0.6-113.8-3.2-144.9-6.6-8-0.9-14.2-1.8-18.2-2.8-38-9.3-52.5-80 7.2-124.7z"/>
				<path id="&lt;Path&gt;" class="s29" d="m536.2 1488.3c4.3-45.3 13.1-98.5 28.7-142q0.3-0.8 0.6-1.6c12.2-33.4 28.4-60.8 49.8-74.3 12.4-7.9 26.6-11.1 42.7-8q0.6 0.1 1.1 0.3c0 0 17.9 10.8 5.9 81.9q-0.2 0.9-0.3 1.8c-7.8 44.5-27.1 112.1-69.3 214.4q-9.1 22.1-19.6 46.5c0 0-31-1.1-40.4-21.6-3.1-6.8-3.9-47.3 0.8-97.4z"/>
				<path id="&lt;Path&gt;" class="s30" d="m407.8 1104.6c-19.3-2.4-76-32.8-78.7-52.6-2.7-19.8 48.1-156.4 57.7-166.5 6.9-7.2 25.7-11.2 36.1-13 4.3-0.7 7.2-1 7.2-1z"/>
				<path id="&lt;Path&gt;" class="s31" d="m498.5 891.8c0.2 0.2-0.1 29.4-25.2 23.2-16.4-4.2-48.1-31.7-42-45.4 2.8-6.5 18.9-21.6 29.5-61.4l2.8 1.4 48 24.1c0 0-5.5 15.8-9.6 31-3.5 12.7-6 25-3.5 27.1z"/>
				<path id="&lt;Path&gt;" class="s9" d="m532.2 844c0 0-72.2 16.4-81.7-29.1-9.4-45.6-25.1-74.2 20.6-86.6 45.6-12.5 58.2 3 65.1 17.5 6.8 14.4 14.5 92.7-4 98.2z"/>
				<path id="&lt;Path&gt;" class="s26" d="m446.2 1270.3l17 56.4c0 0-37.4 30.2-34.8 5 2.5-25.1-41.5-61.4-41.5-61.4z"/>
				<path id="&lt;Path&gt;" class="s32" d="m476 816.5c-17.2 5.9-43.6-28.3-51.2-48.3-9.2-24.4 12-72.9 67.5-65.8 0 0 16.1 1.3 31.4 11.4 12.2 8 44.5 28.7-7.7 50.8-19.7 8.3-24.9 46.7-40 51.9z"/>
				<path id="&lt;Path&gt;" class="s26" d="m443 1253.7c6.2-14.6 17.1-29 33.7-41.5 5.4-4 12.3-6.9 20.5-8.9 53.6-12.7 157.6 16.5 226.2 34.2 37 9.5 61.9 25 62 25.1 0 0 28.5 26.6-20 179.4-13.9 43.9-34.2 98.1-63.4 165.1 0 0-31-1-40.4-21.5-5.3-11.6-3.8-121.1 20.3-209.7 2.8-10.3 5.9-20.3 9.3-29.8-8.5 0.2-17.4 0.3-26.5 0.3-13.7 0.1-27.9 0-42.1-0.2q-0.1 0-0.3 0c-19.2-0.3-38.6-0.9-56.8-1.5-45-1.8-83.1-4.6-96-7.8-27.4-6.7-42.6-45.3-26.5-83.2z"/>
				<path id="&lt;Path&gt;" class="s33" d="m386 1101.5c4.5-11.9 5.6-24.8 3.3-37.4-17.5-93.8-11.5-183.7-11.5-183.7 76.7-25.2 175.4 2.7 177.1 5.3 12 18 16 69.5 10.7 120.3-3.1 29.8-8.1 57.8-13.5 75.2-2.2 7.2-3.2 14.3-3.3 21.6-0.2 17 4.7 34.5 11.5 53.1 8.9 24 20.2 23.9 22.6 38.6 6.8 41.7-136.3 103.9-196 75.8h-0.1c-8.3-3.9-14.7-8.6-18.5-13.9-23.7-33.4 3.8-117.7 17.7-154.9z"/>
				<path id="&lt;Path&gt;" class="s30" d="m519.4 1082.5c-10.3-32.6-13.3-73 7.7-114.8 0 0 21.3 13.1 38.5 38.3-3.1 29.8-8.1 57.8-13.5 75.2-2.2 7.3-3.3 14.7-3.3 22.2q0 0.6 0 1.2 0 1.5 0.1 3 0 0.6 0 1.2 0.1 1.9 0.3 3.9 0.1 0.6 0.1 1.2 0.2 1.4 0.4 2.9 0.1 0.7 0.2 1.5 0.3 1.7 0.6 3.5 0.1 0.6 0.2 1.3 0.3 1.5 0.6 3.1 0.2 0.8 0.4 1.6 0.3 1.4 0.7 2.9 0.1 0.6 0.3 1.3 0.5 1.9 1 3.9 0.3 0.8 0.5 1.6 0.4 1.3 0.8 2.7 0.3 0.8 0.5 1.6 0.6 1.9 1.3 3.9 0.2 0.7 0.4 1.4 0.6 1.5 1.1 3.1 0.3 0.7 0.5 1.4 0.8 2.2 1.5 4.3c8.9 24 30.1 36.2 30.1 48.3-0.1 31.2-143.8 94.2-203.5 66.1 139.3 21.6 132.6-186.9 132.5-187.8z"/>
				<path id="&lt;Path&gt;" class="s32" d="m544.2 742.5c0 0-7.5 54.7-49.5 74.5 0 0 27.4-63.3 13.5-75.4-13.9-12.1 36 0.9 36 0.9z"/>
				<path id="&lt;Path&gt;" class="s9" d="m495.8 803.3c-4.3 0.3-13.6-23.6-6.9-26.5 6.7-2.8 13.9 12 13.9 12 0 0-2.6 14.3-7 14.5z"/>
				<path id="&lt;Path&gt;" class="s33" d="m479.9 869.2c0 0 68.4 4.3 85.1 21.3 7.7 7.9 64.4 140.8 70.2 141.6 5.7 0.7 61.4-9.5 61.4-9.5 0 0 0.5 7.5-0.8 18.1-2.3 17.8-9.5 43.9-32.2 56.6 0 0-34.1 9.8-78.8-26.5-5.6-4.5-11-9.9-16.1-15.8q-0.2-0.2-0.2-0.2c-26.9-31-46.1-75-57.3-83.3-13.3-9.9-49.3-110-31.3-102.3z"/>
				<path id="&lt;Path&gt;" class="s30" d="m695.8 1040.7c-2.3 17.8-9.5 43.9-32.2 56.6 0 0-34.1 9.8-78.8-26.5-5.6-4.5-11-9.9-16.1-15.8q-0.2-0.2-0.2-0.2c68 39.2 120-7.1 127.3-14.1z"/>
				<path id="&lt;Compound Path&gt;" class="s32" d="m324.6 877.1c30.7-22.6 63.2-50.1 56.6-73.8-15.3-54.8 29.5-121.4 76-101.7 25 10.5 45.2 148.2 10.8 186.1 3-7.6 6.4-21.1 7.8-45.1-0.2 2.3-3.4 32.6-13.2 50-50.1 66.7 40.2 67.5 3.7 128.1 0 0-3.1 21-85.8-1.9-14.5-4.1-27.7-12.2-37.5-23.7-6.9-8.1-13.2-17.9-14-27.4 0 0-0.6 19.3 12.3 38.8-25.2-9-41.6-34.5-45.1-63.8-2.5-21.9 2.6-46.5 28.4-65.6z"/>
				<g id="&lt;Group&gt;">
					<path id="&lt;Path&gt;" class="s6" d="m429.9 1329.3c12.8-1 27.3-1.6 43.7-2.1 205.9-5.1 214.2 29.7 214.2 29.7h-355.6c0 0-3.5-20.5 97.7-27.6z"/>
					<g id="&lt;Group&gt;">
						<path id="&lt;Path&gt;" class="s34" d="m595.3 1669.5c-61.7-161.6-53.3-302.3-51.2-305.5 1.7-2.4 16-1.6 19.2-1.6 3.2 0.1 9.1 2.7 9 5.6 0 1.4-10.7 115.5 30.7 301.5z"/>
					</g>
					<g id="&lt;Group&gt;">
						<path id="&lt;Path&gt;" class="s34" d="m693.4 1669.5c-61.6-161.6-53.3-302.3-51.2-305.5 1.7-2.4 16-1.6 19.2-1.6 3.2 0.1 9.2 2.7 9 5.6 0 1.4-10.6 115.5 30.7 301.5z"/>
					</g>
					<path id="&lt;Path&gt;" class="s35" d="m328.4 1358.5c1-1 2.4-1.6 3.9-1.6h357.6c3 0 5.4 2.5 5.4 5.5 0 1.6-0.6 2.9-1.6 4-1 1-2.3 1.6-3.8 1.6h-357.6c-3 0-5.5-2.5-5.5-5.6 0-1.5 0.6-2.9 1.6-3.9z"/>
					<path id="&lt;Path&gt;" class="s36" d="m429.1 1329.3c12.9-1 27.4-1.6 43.8-2.1 206.6-5.1 214.9 29.7 214.9 29.7h-268.9c11.9-9.2 10.9-23.3 10.2-27.6z"/>
					<g id="&lt;Group&gt;">
						<path id="&lt;Path&gt;" class="s37" d="m328.4 1358.5c1-1 2.4-1.6 4-1.6h190.8c3 0 5.5 2.5 5.5 5.5 0 1.6-0.6 2.9-1.6 4-1 1-2.4 1.6-3.9 1.6h-190.8c-3.1 0-5.6-2.5-5.6-5.6 0-1.5 0.6-2.9 1.6-3.9z"/>
						<g id="&lt;Group&gt;">
							<g id="&lt;Group&gt;">
								<path id="&lt;Path&gt;" class="s37" d="m337.8 1363.1q0 0 0 0c-3.2 0-5.8-2.4-5.7-5.2 3.2-204-74.9-360.7-75.6-362.3-1.4-2.6-1.1-8.4 7.3-9.2 7.4-0.6 11.9 1 13.2 3.6 0.2 0.4 17.6 37.7 37 102.6 17.8 59.8 31.4 157.7 29.6 265.4 0 2.8-2.6 5.1-5.8 5.1z"/>
							</g>
							<g id="&lt;Group&gt;">
								<path id="&lt;Path&gt;" class="s37" d="m511.9 1363.1q0 0-0.1 0c-3.2 0-5.7-2.4-5.7-5.2 3.3-204-74.8-360.7-75.6-362.3-1.3-2.6-1-8.4 7.4-9.2 7.3-0.6 11.9 1 13.2 3.6 0.2 0.4 17.6 37.7 37 102.6 17.8 59.8 31.3 157.7 29.6 265.4 0 2.8-2.6 5.1-5.8 5.1z"/>
							</g>
							<g id="&lt;Group&gt;">
								<path id="&lt;Path&gt;" class="s37" d="m286.3 1058.2c-2.8 0-5.2-1.8-5.7-4.3-0.5-2.8 1.6-5.5 4.7-6 5-0.7 123.4-18.6 176.4-3.7 3.1 0.9 4.8 3.8 3.8 6.5-0.9 2.7-4.2 4.3-7.2 3.4-50.4-14.1-169.8 3.9-171 4.1q-0.5 0-1 0z"/>
							</g>
							<g id="&lt;Group&gt;">
								<path id="&lt;Path&gt;" class="s37" d="m299.8 1092.6c-2.7 0-5.2-1.8-5.7-4.3-0.5-2.9 1.6-5.5 4.8-6 5-0.8 123.4-18.7 176.4-3.8 3 0.9 4.7 3.8 3.7 6.5-0.9 2.8-4.2 4.3-7.2 3.4-50.4-14.1-169.8 3.9-171 4.1q-0.5 0.1-1 0.1z"/>
							</g>
						</g>
						<g id="&lt;Group&gt;">
							<path id="&lt;Path&gt;" class="s37" d="m302 1669.5c41.4-186 30.7-300.1 30.7-301.5-0.1-2.9 5.8-5.5 9-5.6 3.3 0 17.5-0.8 19.2 1.6 2.1 3.2 10.5 143.9-51.2 305.5z"/>
						</g>
						<g id="&lt;Group&gt;">
							<path id="&lt;Path&gt;" class="s37" d="m463.2 1669.5c41.4-188.2 30.7-303.7 30.7-305.2-0.1-2.9 5.8-5.5 9-5.6 3.3-0.1 17.5-0.9 19.2 1.6 2.2 3.3 10.5 145.6-51.2 309.2z"/>
						</g>
					</g>
				</g>
				<path id="&lt;Path&gt;" class="s15" d="m836.3 995.3l-2.5 5.1c0 0-54.6-14.9-72-14.1 0 0 38.8-12.9 74.5 9z"/>
				<path id="&lt;Path&gt;" class="s38" d="m761.8 986.3l-62.6-23.2 1.1-2.8c0 0 48.1 2.8 61.5 26z"/>
				<path id="&lt;Path&gt;" class="s9" d="m748.9 996c0 0 1.2-16.7 11-22.7 4.3-2.3 7.9-4.1 10.3-5.3 1.9-0.9 4.2 0.7 4 2.9-0.2 1.8-0.9 3.9-3 6-5 5.1-6.3 13.5-6.3 13.5z"/>
			</g>
			<path id="&lt;Path&gt;" class="s39" d="m100.9 1667c0-2 1.7-3.7 3.8-3.7h2790.6c2.1 0 3.8 1.7 3.8 3.7 0 2.1-1.7 3.8-3.8 3.8h-2790.6c-2.1 0-3.8-1.7-3.8-3.8z"/>
		</g>
	</g>
</svg>